<?xml version="1.0" encoding="UTF-8"?>
<!-- Generator: visioncortex VTracer 0.6.12 -->
<svg version="1.1" xmlns="http://www.w3.org/2000/svg" width="1020" height="932">
<path d="M0 0 C336.6 0 673.2 0 1020 0 C1020 307.56 1020 615.12 1020 932 C683.4 932 346.8 932 0 932 C0 624.44 0 316.88 0 0 Z " fill="#FEFEFE" transform="translate(0,0)"/>
<path d="M0 0 C1.02 0.01 1.02 0.01 6.19 0.06 C8.4 0.09 10.62 0.13 12.9 0.16 C15.16 0.18 17.42 0.21 19.75 0.23 C26.99 0.32 34.24 0.41 41.48 0.51 C46.38 0.57 51.28 0.63 56.18 0.68 C68.22 0.82 80.26 0.97 92.3 1.14 C92.3 2.71 92.31 4.28 92.32 5.9 C92.4 20.71 92.49 35.53 92.58 50.35 C92.63 57.96 92.68 65.58 92.72 73.2 C92.75 80.55 92.8 87.9 92.85 95.25 C92.87 98.06 92.89 100.86 92.9 103.66 C92.92 107.59 92.95 111.52 92.98 115.46 C92.98 116.57 92.98 116.57 93.02 122.23 C93.27 127.48 93.96 132.07 95.3 137.14 C95.96 137.14 96.62 137.14 97.3 137.14 C98.2 138.35 99.11 139.57 100.05 140.82 C106.18 148.96 112.83 151.98 122.3 155.14 C125.11 155.33 127.94 155.42 130.76 155.44 C132.39 155.47 134.01 155.49 135.68 155.52 C139.09 155.56 142.5 155.59 145.91 155.61 C147.53 155.64 149.16 155.67 150.83 155.69 C152.31 155.71 153.79 155.72 155.31 155.73 C159.3 156.14 159.3 156.14 165.3 159.14 C169.78 165.86 169.92 168.29 169.3 176.14 C166.3 182.14 166.3 182.14 161.3 186.14 C157.38 186.92 157.38 186.92 152.81 187.33 C151.15 187.49 149.5 187.65 147.79 187.81 C146.06 187.96 144.33 188.11 142.55 188.26 C139.13 188.57 135.72 188.89 132.31 189.21 C131.56 189.27 131.56 189.27 127.73 189.6 C115.81 191.03 108.85 194.58 100.3 203.14 C93.35 214.57 92.88 227.22 93.11 240.26 C93.12 241.76 93.13 243.27 93.14 244.82 C93.18 249.59 93.24 254.36 93.3 259.14 C93.38 265.43 93.44 271.72 93.48 278.01 C93.5 278.72 93.5 278.72 93.56 282.32 C93.66 296.12 90.46 307.44 85.3 320.14 C84.64 320.14 83.98 320.14 83.3 320.14 C82.64 322.45 81.98 324.76 81.3 327.14 C79.98 328.79 78.66 330.44 77.3 332.14 C76.64 332.14 75.98 332.14 75.3 332.14 C74.64 333.46 73.98 334.78 73.3 336.14 C65.77 343.66 58.19 350.94 48.3 355.14 C41.3 358.14 41.3 358.14 37.86 359.7 C16.37 366.47 -10.29 364.85 -31.83 359.26 C-33.85 358.75 -35.88 358.23 -37.96 357.71 C-38.74 357.45 -38.74 357.45 -42.7 356.14 C-43.03 355.15 -43.36 354.16 -43.7 353.14 C-44.96 352.87 -46.22 352.6 -47.52 352.32 C-55.05 350.6 -62.18 347.66 -67.7 342.14 C-68.88 341.58 -70.06 341.02 -71.27 340.45 C-79.02 336.41 -85.29 330.56 -91.7 324.7 C-96.7 320.14 -96.7 320.14 -98.7 319.14 C-98.7 318.48 -98.7 317.82 -98.7 317.14 C-100.02 316.48 -101.34 315.82 -102.7 315.14 C-104.35 313.16 -106 311.18 -107.7 309.14 C-109.68 307.49 -111.66 305.84 -113.7 304.14 C-113.7 303.48 -113.7 302.82 -113.7 302.14 C-115.02 301.48 -116.34 300.82 -117.7 300.14 C-118.63 299.19 -119.56 298.24 -120.52 297.26 C-123.72 294.12 -126.78 292.25 -130.7 290.14 C-131.36 289.48 -132.02 288.82 -132.7 288.14 C-133.88 287.7 -135.06 287.27 -136.27 286.82 C-141.07 285 -145.26 282.72 -149.7 280.14 C-151.29 279.23 -152.88 278.32 -154.52 277.39 C-167.71 269.12 -179.87 259.26 -189.7 247.14 C-190.9 245.82 -192.1 244.5 -193.33 243.14 C-200.7 234.39 -200.7 234.39 -200.7 230.14 C-201.36 230.14 -202.02 230.14 -202.7 230.14 C-202.7 229.15 -202.7 228.16 -202.7 227.14 C-203.36 227.14 -204.02 227.14 -204.7 227.14 C-207.54 221.55 -210.21 215.92 -212.77 210.2 C-213.1 209.45 -213.1 209.45 -214.8 205.67 C-223.77 184.29 -225.29 161.05 -225.34 138.12 C-225.43 124.06 -228.5 118.29 -236.7 107.14 C-236.7 106.15 -236.7 105.16 -236.7 104.14 C-237.36 104.14 -238.02 104.14 -238.7 104.14 C-241.7 98.14 -241.7 98.14 -241.7 96.14 C-242.36 96.14 -243.02 96.14 -243.7 96.14 C-246.53 90.86 -248.45 85.99 -249.7 80.14 C-250.36 80.14 -251.02 80.14 -251.7 80.14 C-260.91 56.61 -266.55 27.24 -256.7 3.14 C-252.99 1.28 -248.51 2.01 -244.44 2.01 C-243.35 2 -243.35 2 -237.81 2 C-235.43 2 -233.04 2 -230.59 2 C-228.16 2 -225.73 2 -223.23 2 C-218.08 2 -212.93 2 -207.78 2 C-199.87 2.01 -191.96 2 -184.06 2 C-179.07 2 -174.08 2 -169.09 2 C-166.71 2 -164.33 2 -161.88 2 C-160.78 2 -160.78 2 -155.22 2.01 C-153.28 2.01 -151.35 2.01 -149.35 2.01 C-144.7 2.14 -144.7 2.14 -140.7 3.14 C-139.78 7.73 -139.5 11.84 -139.33 16.51 C-138.75 27.72 -137.16 37.73 -132.7 48.14 C-132.7 49.46 -132.7 50.78 -132.7 52.14 C-132.04 52.14 -131.38 52.14 -130.7 52.14 C-129.71 54.45 -128.72 56.76 -127.7 59.14 C-126.05 60.79 -124.4 62.44 -122.7 64.14 C-122.24 64.72 -122.24 64.72 -119.89 67.7 C-116.44 71.42 -113.33 73.14 -108.7 75.14 C-108.7 75.8 -108.7 76.46 -108.7 77.14 C-107.71 77.3 -107.71 77.3 -102.7 78.14 C-101.38 79.13 -100.06 80.12 -98.7 81.14 C-80.37 85.66 -59.63 85.19 -42.95 75.95 C-41.55 75.02 -40.15 74.09 -38.7 73.14 C-37.71 72.81 -36.72 72.48 -35.7 72.14 C-35.37 71.48 -35.37 71.48 -33.7 68.14 C-32.8 67.1 -31.89 66.07 -30.95 65.01 C-26.7 59.93 -22.81 54.47 -20.7 48.14 C-20.04 48.14 -19.38 48.14 -18.7 48.14 C-18.37 45.83 -18.04 43.52 -17.7 41.14 C-17.37 40.81 -17.04 40.48 -16.7 40.14 C-14.83 30.32 -14.3 20.63 -13.95 10.66 C-13.7 6.14 -13.7 6.14 -12.7 2.14 C-8.42 -0.72 -5.14 -0.06 0 0 Z " fill="#D5C6FB" transform="translate(408.703857421875,503.86474609375)"/>
<path d="M0 0 C6 3 6 3 9 10 C11.92 18.75 11.71 27.71 12.04 36.86 C12.69 50.66 12.69 50.66 17 57 C17.66 57.33 18.32 57.66 19 58 C19 58.66 19 59.32 19 60 C19.66 60 20.32 60 21 60 C21 60.66 21 61.32 21 62 C22.65 62.66 24.3 63.32 26 64 C26.95 64.66 27.9 65.32 28.88 66 C38.78 70.8 51.21 70.25 62 70.23 C62.66 70.23 62.66 70.23 65.97 70.23 C70.24 70.23 74.51 70.21 78.78 70.2 C81.76 70.19 84.74 70.19 87.73 70.19 C95.53 70.18 103.34 70.16 111.15 70.14 C119.13 70.12 127.12 70.11 135.1 70.1 C150.73 70.08 166.37 70.04 182 70 C191.94 89.15 187.99 115.48 182.06 135.56 C180.1 140.73 178.09 145.88 176 151 C175.67 151.99 175.34 152.98 175 154 C174.34 154 173.68 154 173 154 C172.67 155.32 172.34 156.64 172 158 C169 163 169 163 165.62 167.75 C158.57 177.96 155.92 184.87 155.72 197.23 C155.68 199.25 155.64 201.27 155.61 203.35 C155.59 204.41 155.59 204.41 155.5 209.75 C155.43 213.91 155.36 218.07 155.28 222.23 C155.25 224.08 155.22 225.93 155.19 227.83 C154.24 253.65 144.01 277.98 131 300 C130.34 300 129.68 300 129 300 C128.34 301.98 127.68 303.96 127 306 C124.38 309.04 121.71 312.04 119 315 C118.05 316.34 117.1 317.68 116.12 319.06 C115.42 320.03 114.72 321 114 322 C113.34 322 112.68 322 112 322 C111.34 323.32 110.68 324.64 110 326 C104.62 331.99 98.37 336.75 92.01 341.64 C89 344 89 344 87 346 C86.01 346 85.02 346 84 346 C84 346.66 84 347.32 84 348 C76.25 352 76.25 352 74 352 C74 352.66 74 353.32 74 354 C67.2 358.08 60.52 360.55 53 363 C35.65 370.46 35.65 370.46 29.81 378.5 C24.39 385.67 18.54 391.84 12 398 C11.34 398 10.68 398 10 398 C10 398.66 10 399.32 10 400 C-7.59 414 -7.59 414 -12 414 C-12 414.66 -12 415.32 -12 416 C-23.63 422 -23.63 422 -27 422 C-27 422.66 -27 423.32 -27 424 C-45.63 430.74 -62.35 434.28 -82.06 434.44 C-83.48 434.46 -84.9 434.48 -86.36 434.5 C-96.52 434.48 -105.22 432.75 -115 430 C-116.71 429.61 -118.42 429.22 -120.19 428.81 C-138.7 421.84 -149.87 407.33 -158 390 C-168.59 366.22 -170.26 322.79 -162 298 C-151.07 297.71 -141.76 298.79 -131 301 C-118.42 301.45 -110.39 300.29 -99 295 C-97.68 295 -96.36 295 -95 295 C-95 294.34 -95 293.68 -95 293 C-93.02 291.68 -91.04 290.36 -89 289 C-81.45 280.91 -81.45 280.91 -80 278 C-79.34 278 -78.68 278 -78 278 C-78 277.01 -78 276.02 -78 275 C-77.34 275 -76.68 275 -76 275 C-75.67 272.69 -75.34 270.38 -75 268 C-74.01 265.69 -73.02 263.38 -72 261 C-69.54 246.21 -69.52 231.03 -75 217 C-75 216.01 -75 215.02 -75 214 C-75.66 214 -76.32 214 -77 214 C-81 206.38 -81 206.38 -81 203 C-82.32 202.67 -83.64 202.34 -85 202 C-85.33 200.68 -85.66 199.36 -86 198 C-86.99 197.67 -87.98 197.34 -89 197 C-89 196.34 -89 195.68 -89 195 C-90.32 194.67 -91.64 194.34 -93 194 C-93.99 193.01 -94.98 192.02 -96 191 C-114.24 181.88 -131.78 182.03 -151 188 C-157.88 188.25 -157.88 188.25 -163 188 C-165.69 179.93 -166.13 172.65 -166.13 164.23 C-166.13 162.12 -166.14 160.02 -166.14 157.85 C-166.13 155.65 -166.13 153.45 -166.12 151.19 C-166.13 150.11 -166.13 150.11 -166.14 144.66 C-166.13 133.82 -165.94 123.06 -165.25 112.25 C-164.73 103.36 -164.6 94.46 -164.39 85.56 C-164.11 74.42 -164.11 74.42 -163 70 C-161.85 70 -160.71 70.01 -159.53 70.01 C-147.52 70.06 -135.52 70.09 -123.51 70.11 C-119.04 70.12 -114.57 70.13 -110.1 70.15 C-103.64 70.18 -97.19 70.19 -90.73 70.2 C-88.76 70.21 -86.78 70.22 -84.75 70.23 C-42.14 70.23 -42.14 70.23 -26 57 C-25.34 54.69 -24.68 52.38 -24 50 C-23.67 49.67 -23.34 49.34 -23 49 C-22.13 44.07 -22.01 39.52 -22.06 34.5 C-21.87 11.09 -21.87 11.09 -16 3 C-9.48 0.21 -6.79 -0.57 0 0 Z " fill="#F2B58D" transform="translate(694,434)"/>
<path d="M0 0 C2.96 4.44 2.24 8.21 2.23 13.53 C2.23 15.75 2.23 17.97 2.23 20.26 C2.22 22.68 2.21 25.09 2.2 27.57 C2.19 28.8 2.19 28.8 2.19 35.03 C2.18 41.57 2.16 48.12 2.14 54.66 C2.12 61.34 2.11 68.01 2.1 74.69 C2.08 87.79 2.04 100.9 2 114 C-3.3 115.06 -8.23 115.26 -13.62 115.44 C-33.41 116.31 -47.44 120.44 -61.75 134.75 C-66.44 140.89 -70.12 147.47 -72 155 C-72.66 155 -73.32 155 -74 155 C-76.45 177.03 -76.76 196.65 -65 216 C-52.58 231.29 -39.68 238.87 -20 241 C-13.34 241.43 -6.67 241.75 0 242 C7.85 257.71 3.15 284.69 3.13 302.1 C3.12 307.58 3.13 313.06 3.14 318.53 C3.14 322.04 3.13 325.56 3.13 329.07 C3.13 330.69 3.14 332.31 3.14 333.98 C3.09 357.91 3.09 357.91 1 360 C-8.92 361.33 -18.72 360.89 -28.69 360.56 C-44.96 360.11 -61.22 359.88 -77.5 359.88 C-79.47 359.87 -81.45 359.87 -83.48 359.86 C-121.36 359.9 -121.36 359.9 -136 369 C-136.66 369 -137.32 369 -138 369 C-138.33 370.32 -138.66 371.64 -139 373 C-139.99 373 -140.98 373 -142 373 C-145.5 379.99 -147.37 386.14 -148.06 393.94 C-149.73 410.41 -149.73 410.41 -155 417 C-155.66 417 -156.32 417 -157 417 C-157.33 417.99 -157.66 418.98 -158 420 C-163.48 421.37 -168.37 421.29 -174 421 C-183.06 414.96 -184.88 410.4 -187 400 C-187.78 394.34 -188.4 388.69 -189 383 C-189.66 383 -190.32 383 -191 383 C-191.27 382.48 -191.27 382.48 -192.62 379.88 C-195.03 375.95 -197.73 373.2 -201 370 C-201 369.34 -201 368.68 -201 368 C-202.65 367.34 -204.3 366.68 -206 366 C-207.2 365.32 -208.39 364.64 -209.62 363.94 C-218.06 360.2 -227.54 360.87 -236.63 360.83 C-238.9 360.81 -241.17 360.8 -243.5 360.79 C-245.92 360.78 -248.34 360.76 -250.84 360.75 C-255.97 360.72 -261.11 360.69 -266.25 360.65 C-274.34 360.61 -282.43 360.56 -290.52 360.52 C-298.33 360.49 -306.15 360.43 -313.96 360.38 C-316.39 360.37 -318.83 360.36 -321.33 360.35 C-323.58 360.34 -325.83 360.32 -328.14 360.3 C-330.12 360.29 -332.1 360.28 -334.14 360.27 C-339 360 -339 360 -344 358 C-350.43 349.43 -348.69 337.77 -347.47 327.53 C-344.97 312.88 -341.15 298.92 -336 285 C-335.84 284.34 -335.84 284.34 -335 281 C-334.34 281 -333.68 281 -333 281 C-332.67 279.02 -332.34 277.04 -332 275 C-327.57 263.47 -321.91 253.21 -315 243 C-314.34 241.68 -313.68 240.36 -313 239 C-312.34 239 -311.68 239 -311 239 C-310.67 237.35 -310.34 235.7 -310 234 C-308.68 232.35 -307.36 230.7 -306 229 C-301.72 220.43 -301.89 211.61 -301.27 202.2 C-299.84 183.07 -294.97 164.01 -286 147 C-285.36 145.37 -284.72 143.74 -284.06 142.06 C-281.25 135.15 -278.32 128.32 -273 123 C-271.82 121.29 -270.65 119.58 -269.44 117.81 C-268.3 116.22 -267.17 114.64 -266 113 C-265.34 113 -264.68 113 -264 113 C-263.67 112.34 -263.67 112.34 -262 109 C-261.34 109 -260.68 109 -260 109 C-260 108.34 -260 107.68 -260 107 C-259.34 107 -258.68 107 -258 107 C-257.67 106.34 -257.67 106.34 -256 103 C-250.86 98.13 -245.9 93.93 -240 90 C-239.01 89.01 -238.02 88.02 -237 87 C-233.67 85.33 -230.33 83.67 -227 82 C-225.35 80.68 -223.7 79.36 -222 78 C-217.2 75.02 -212.44 72.91 -207.12 71 C-201.3 68.88 -195.66 66.54 -190 64 C-189.34 64 -188.68 64 -188 64 C-187.67 63.34 -187.67 63.34 -186 60 C-184.68 58.02 -183.36 56.04 -182 54 C-181.34 54 -180.68 54 -180 54 C-179.34 52.35 -178.68 50.7 -178 49 C-175.72 46.94 -173.38 44.94 -171 43 C-170.18 42.18 -170.18 42.18 -166 38 C-161 35 -161 35 -159 35 C-158.34 33.68 -157.68 32.36 -157 31 C-141.7 19 -141.7 19 -134 19 C-134 18.34 -134 17.68 -134 17 C-130.32 15.54 -126.64 14.07 -122.96 12.61 C-119.29 11.12 -115.64 9.56 -112 8 C-108.57 6.78 -105.14 5.6 -101.69 4.44 C-99.92 3.84 -98.15 3.24 -96.32 2.62 C-91.23 1.07 -86.22 -0 -81 -1 C-78.69 -1.66 -76.38 -2.32 -74 -3 C-51.27 -7.6 -21.44 -10.56 0 0 Z " fill="#EE9CC3" transform="translate(500,117)"/>
<path d="M0 0 C1.32 0.33 2.64 0.66 4 1 C4 1.66 4 2.32 4 3 C5.98 3.33 7.96 3.66 10 4 C13.39 5.9 16.72 7.92 20 10 C20.96 10.61 20.96 10.61 25.81 13.69 C27.52 14.78 29.24 15.87 31 17 C31.83 17.5 31.83 17.5 36 20 C36 20.66 36 21.32 36 22 C37.32 22.66 38.64 23.32 40 24 C47.45 30.19 54.34 36.88 60.62 44.25 C67.41 51.79 74.51 54.54 84 58 C106.34 66.48 126.61 79.53 142 98 C142 98.66 142 99.32 142 100 C142.66 100 143.32 100 144 100 C156.25 115.4 167.26 133.48 171 153 C171.25 153.94 171.25 153.94 172.5 158.69 C175.54 173.53 176.15 188.7 176.75 203.81 C177 208 177 208 178 214 C178.99 214.33 179.98 214.66 181 215 C182.69 217.99 184.35 220.99 186 224 C188.66 227.67 191.33 231.34 194 235 C194 235.66 194 236.32 194 237 C194.66 237 195.32 237 196 237 C202 245.28 202 245.28 202 249 C202.66 249 203.32 249 204 249 C208.92 258.5 213.27 267.95 217 278 C217.64 279.37 218.28 280.74 218.94 282.15 C221.25 287.59 222.73 292.96 224.19 298.69 C224.7 300.67 225.21 302.66 225.73 304.7 C227.67 312.8 228.19 320.25 228.25 328.56 C228.28 330.77 228.3 332.98 228.33 335.25 C228 341 228 341 225 346 C219.69 347.33 214.77 347.14 209.29 347.15 C206.83 347.15 204.38 347.16 201.84 347.16 C199.15 347.17 196.46 347.17 193.77 347.17 C191.03 347.17 188.28 347.17 185.53 347.18 C179.77 347.18 174.02 347.19 168.26 347.19 C160.86 347.19 153.46 347.2 146.07 347.22 C140.4 347.23 134.72 347.23 129.05 347.23 C126.32 347.23 123.6 347.23 120.87 347.24 C117.06 347.25 113.26 347.25 109.45 347.24 C107.29 347.24 105.12 347.25 102.88 347.25 C98 347 98 347 96 345 C95.78 342.31 95.69 339.61 95.66 336.91 C95.64 336.09 95.64 336.09 95.57 331.9 C95.54 330.16 95.52 328.42 95.5 326.62 C95.2 302.96 92.23 284.23 74.88 266.88 C58.35 253.74 40.97 251.43 20.62 253.56 C3.16 258.99 -8.35 269.07 -17 285 C-20.8 294.02 -23.11 301.04 -23.14 310.75 C-23.16 312.47 -23.18 314.19 -23.2 315.97 C-23.23 319.61 -23.25 323.25 -23.25 326.89 C-23.28 328.62 -23.3 330.34 -23.33 332.12 C-23.33 332.91 -23.33 332.91 -23.36 336.92 C-24 341 -24 341 -29 346 C-59.67 349.85 -92.17 346.75 -123 346 C-125.01 341.97 -124.09 336.58 -124.07 332.21 C-124.06 329.69 -124.05 327.17 -124.04 324.57 C-124.03 323.21 -124.02 321.85 -124.01 320.45 C-123.99 316.2 -123.98 311.96 -123.97 307.71 C-123.93 295.64 -123.89 283.56 -123.83 271.48 C-123.79 264.1 -123.77 256.72 -123.75 249.34 C-123.75 246.53 -123.73 243.72 -123.71 240.91 C-123.69 236.97 -123.68 233.02 -123.68 229.08 C-123.67 226.84 -123.66 224.6 -123.65 222.29 C-124.39 209.06 -128.12 197.24 -137.25 187.44 C-147.41 180.09 -159.36 180.05 -171.49 178.84 C-177 178 -177 178 -181 175 C-182.85 167.61 -183.01 159.99 -180.56 152.75 C-175.41 147.22 -166.74 147.7 -159.56 147.12 C-152.39 146.43 -146.57 145.13 -140 142 C-139.34 142 -138.68 142 -138 142 C-138 141.34 -138 140.68 -138 140 C-136.6 139.01 -135.2 138.02 -133.75 137 C-125.69 130.21 -124.56 122.07 -123 112 C-122.84 108.05 -122.77 104.1 -122.79 100.15 C-122.79 97.84 -122.8 95.53 -122.8 93.15 C-122.81 90.67 -122.83 88.2 -122.84 85.65 C-122.85 81.74 -122.86 77.83 -122.86 73.91 C-122.88 68.45 -122.9 62.99 -122.92 57.53 C-122.96 47.97 -122.99 38.4 -123.01 28.84 C-123.02 23.75 -123.04 18.66 -123.06 13.58 C-123.07 11.27 -123.08 8.96 -123.08 6.59 C-123.09 4.56 -123.1 2.54 -123.11 0.45 C-123.01 -4.44 -122.64 -9.15 -122 -14 C-85.17 -29.27 -34.3 -15.89 0 0 Z " fill="#85CAD8" transform="translate(654,130)"/>
<path d="M0 0 C1.02 0.01 1.02 0.01 6.19 0.06 C8.4 0.09 10.62 0.13 12.9 0.16 C15.16 0.18 17.42 0.21 19.75 0.23 C26.99 0.32 34.24 0.41 41.48 0.51 C46.38 0.57 51.28 0.63 56.18 0.68 C68.22 0.82 80.26 0.97 92.3 1.14 C92.3 2.71 92.31 4.28 92.32 5.9 C92.4 20.71 92.49 35.53 92.58 50.35 C92.63 57.96 92.68 65.58 92.72 73.2 C92.75 80.55 92.8 87.9 92.85 95.25 C92.87 98.06 92.89 100.86 92.9 103.66 C92.92 107.59 92.95 111.52 92.98 115.46 C92.98 116.57 92.98 116.57 93.02 122.23 C93.27 127.48 93.96 132.07 95.3 137.14 C95.96 137.14 96.62 137.14 97.3 137.14 C98.2 138.35 99.11 139.57 100.05 140.82 C106.18 148.96 112.83 151.98 122.3 155.14 C125.11 155.33 127.94 155.42 130.76 155.44 C132.39 155.47 134.01 155.49 135.68 155.52 C139.09 155.56 142.5 155.59 145.91 155.61 C147.53 155.64 149.16 155.67 150.83 155.69 C152.31 155.71 153.79 155.72 155.31 155.73 C159.3 156.14 159.3 156.14 165.3 159.14 C169.78 165.86 169.92 168.29 169.3 176.14 C166.3 182.14 166.3 182.14 161.3 186.14 C157.38 186.92 157.38 186.92 152.81 187.33 C151.15 187.49 149.5 187.65 147.79 187.81 C146.06 187.96 144.33 188.11 142.55 188.26 C139.13 188.57 135.72 188.89 132.31 189.21 C131.56 189.27 131.56 189.27 127.73 189.6 C115.81 191.03 108.85 194.58 100.3 203.14 C93.35 214.57 92.88 227.22 93.11 240.26 C93.12 241.76 93.13 243.27 93.14 244.82 C93.18 249.59 93.24 254.36 93.3 259.14 C93.38 265.43 93.44 271.72 93.48 278.01 C93.5 278.72 93.5 278.72 93.56 282.32 C93.66 296.12 90.46 307.44 85.3 320.14 C84.64 320.14 83.98 320.14 83.3 320.14 C82.64 322.45 81.98 324.76 81.3 327.14 C79.98 328.79 78.66 330.44 77.3 332.14 C76.64 332.14 75.98 332.14 75.3 332.14 C74.64 333.46 73.98 334.78 73.3 336.14 C65.77 343.66 58.19 350.94 48.3 355.14 C41.3 358.14 41.3 358.14 37.86 359.7 C16.37 366.47 -10.29 364.85 -31.83 359.26 C-33.85 358.75 -35.88 358.23 -37.96 357.71 C-38.74 357.45 -38.74 357.45 -42.7 356.14 C-43.03 355.15 -43.36 354.16 -43.7 353.14 C-44.96 352.87 -46.22 352.6 -47.52 352.32 C-55.05 350.6 -62.18 347.66 -67.7 342.14 C-68.88 341.58 -70.06 341.02 -71.27 340.45 C-79.02 336.41 -85.29 330.56 -91.7 324.7 C-96.7 320.14 -96.7 320.14 -98.7 319.14 C-98.7 318.48 -98.7 317.82 -98.7 317.14 C-100.02 316.48 -101.34 315.82 -102.7 315.14 C-104.35 313.16 -106 311.18 -107.7 309.14 C-109.68 307.49 -111.66 305.84 -113.7 304.14 C-113.7 303.48 -113.7 302.82 -113.7 302.14 C-115.02 301.48 -116.34 300.82 -117.7 300.14 C-118.63 299.19 -119.56 298.24 -120.52 297.26 C-123.72 294.12 -126.78 292.25 -130.7 290.14 C-131.36 289.48 -132.02 288.82 -132.7 288.14 C-133.88 287.7 -135.06 287.27 -136.27 286.82 C-141.07 285 -145.26 282.72 -149.7 280.14 C-151.29 279.23 -152.88 278.32 -154.52 277.39 C-167.71 269.12 -179.87 259.26 -189.7 247.14 C-190.9 245.82 -192.1 244.5 -193.33 243.14 C-200.7 234.39 -200.7 234.39 -200.7 230.14 C-201.36 230.14 -202.02 230.14 -202.7 230.14 C-202.7 229.15 -202.7 228.16 -202.7 227.14 C-203.36 227.14 -204.02 227.14 -204.7 227.14 C-207.54 221.55 -210.21 215.92 -212.77 210.2 C-213.1 209.45 -213.1 209.45 -214.8 205.67 C-223.77 184.29 -225.29 161.05 -225.34 138.12 C-225.43 124.06 -228.5 118.29 -236.7 107.14 C-236.7 106.15 -236.7 105.16 -236.7 104.14 C-237.36 104.14 -238.02 104.14 -238.7 104.14 C-241.7 98.14 -241.7 98.14 -241.7 96.14 C-242.36 96.14 -243.02 96.14 -243.7 96.14 C-246.53 90.86 -248.45 85.99 -249.7 80.14 C-250.36 80.14 -251.02 80.14 -251.7 80.14 C-260.91 56.61 -266.55 27.24 -256.7 3.14 C-252.99 1.28 -248.51 2.01 -244.44 2.01 C-243.35 2 -243.35 2 -237.81 2 C-235.43 2 -233.04 2 -230.59 2 C-228.16 2 -225.73 2 -223.23 2 C-218.08 2 -212.93 2 -207.78 2 C-199.87 2.01 -191.96 2 -184.06 2 C-179.07 2 -174.08 2 -169.09 2 C-166.71 2 -164.33 2 -161.88 2 C-160.78 2 -160.78 2 -155.22 2.01 C-153.28 2.01 -151.35 2.01 -149.35 2.01 C-144.7 2.14 -144.7 2.14 -140.7 3.14 C-139.78 7.73 -139.5 11.84 -139.33 16.51 C-138.75 27.72 -137.16 37.73 -132.7 48.14 C-132.7 49.46 -132.7 50.78 -132.7 52.14 C-132.04 52.14 -131.38 52.14 -130.7 52.14 C-129.71 54.45 -128.72 56.76 -127.7 59.14 C-126.05 60.79 -124.4 62.44 -122.7 64.14 C-122.24 64.72 -122.24 64.72 -119.89 67.7 C-116.44 71.42 -113.33 73.14 -108.7 75.14 C-108.7 75.8 -108.7 76.46 -108.7 77.14 C-107.71 77.3 -107.71 77.3 -102.7 78.14 C-101.38 79.13 -100.06 80.12 -98.7 81.14 C-80.37 85.66 -59.63 85.19 -42.95 75.95 C-41.55 75.02 -40.15 74.09 -38.7 73.14 C-37.71 72.81 -36.72 72.48 -35.7 72.14 C-35.37 71.48 -35.37 71.48 -33.7 68.14 C-32.8 67.1 -31.89 66.07 -30.95 65.01 C-26.7 59.93 -22.81 54.47 -20.7 48.14 C-20.04 48.14 -19.38 48.14 -18.7 48.14 C-18.37 45.83 -18.04 43.52 -17.7 41.14 C-17.37 40.81 -17.04 40.48 -16.7 40.14 C-14.83 30.32 -14.3 20.63 -13.95 10.66 C-13.7 6.14 -13.7 6.14 -12.7 2.14 C-8.42 -0.72 -5.14 -0.06 0 0 Z M-227.7 31.14 C-228 49.13 -225.77 62.78 -215.7 78.14 C-214.28 80.34 -212.86 82.55 -211.39 84.82 C-207.7 90.14 -207.7 90.14 -205.7 91.14 C-205.21 91.96 -205.21 91.96 -202.7 96.14 C-202.04 96.14 -201.38 96.14 -200.7 96.14 C-200.7 96.8 -200.7 97.46 -200.7 98.14 C-200.04 98.14 -199.38 98.14 -198.7 98.14 C-198.04 99.46 -197.38 100.78 -196.7 102.14 C-195.71 103.13 -194.72 104.12 -193.7 105.14 C-193.34 110.9 -193.68 116.02 -194.7 121.71 C-197.56 140.03 -196.01 158.18 -191.7 176.14 C-191.04 176.14 -190.38 176.14 -189.7 176.14 C-189.56 177.37 -189.42 178.61 -189.27 179.89 C-188.7 184.14 -188.7 184.14 -187.7 188.14 C-187.04 188.14 -186.38 188.14 -185.7 188.14 C-185.54 189.29 -185.54 189.29 -184.7 195.14 C-184.21 195.96 -184.21 195.96 -181.7 200.14 C-180.76 201.89 -179.81 203.64 -178.83 205.45 C-176.26 210.13 -173.57 214.64 -170.7 219.14 C-170.21 219.96 -170.21 219.96 -167.7 224.14 C-166.88 224.96 -166.88 224.96 -162.7 229.14 C-162.04 229.14 -161.38 229.14 -160.7 229.14 C-160.37 230.46 -160.04 231.78 -159.7 233.14 C-158.71 233.96 -158.71 233.96 -153.7 238.14 C-152.05 239.79 -150.4 241.44 -148.7 243.14 C-131.85 255.14 -131.85 255.14 -122.7 255.14 C-122.7 255.8 -122.7 256.46 -122.7 257.14 C-108.45 257.51 -108.45 257.51 -101.7 254.14 C-101.7 253.48 -101.7 252.82 -101.7 252.14 C-100.38 251.48 -99.06 250.82 -97.7 250.14 C-92.05 241.98 -92.18 234.42 -92.24 224.84 C-91.62 219.43 -90.5 217.02 -86.7 213.14 C-80.99 212.66 -76.27 212.74 -70.7 214.14 C-70.37 214.96 -70.37 214.96 -68.7 219.14 C-67.71 221.45 -66.72 223.76 -65.7 226.14 C-64.59 237.42 -65.55 247.51 -69.7 258.14 C-70.36 258.8 -71.02 259.46 -71.7 260.14 C-72.36 261.79 -73.02 263.44 -73.7 265.14 C-78.93 271.41 -83.62 274.24 -90.7 278.14 C-89.7 285.14 -89.7 285.14 -86.7 288.14 C-86.04 288.14 -85.38 288.14 -84.7 288.14 C-84.04 289.46 -83.38 290.78 -82.7 292.14 C-82.04 292.14 -81.38 292.14 -80.7 292.14 C-80.7 292.8 -80.7 293.46 -80.7 294.14 C-74.7 299.14 -74.7 299.14 -72.7 299.14 C-72.7 299.8 -72.7 300.46 -72.7 301.14 C-66.7 305.14 -66.7 305.14 -64.7 305.14 C-64.37 306.13 -64.04 307.12 -63.7 308.14 C-60.74 309.86 -57.73 311.52 -54.7 313.14 C-53.71 313.8 -53.71 313.8 -48.7 317.14 C-47.38 317.14 -46.06 317.14 -44.7 317.14 C-44.37 318.13 -44.04 319.12 -43.7 320.14 C-39.4 321.87 -35.06 323.53 -30.7 325.14 C-29.71 325.8 -28.72 326.46 -27.7 327.14 C-16.53 330.68 -6.01 331.53 5.67 331.57 C6.35 331.58 6.35 331.58 9.81 331.6 C21.53 331.5 30.62 329.81 40.3 323.14 C41.95 322.15 43.6 321.16 45.3 320.14 C45.3 319.48 45.3 318.82 45.3 318.14 C46.62 317.81 47.94 317.48 49.3 317.14 C54.31 312.13 57.27 307.91 59.3 301.14 C59.81 299.55 60.32 297.97 60.84 296.34 C62.55 289.04 62.76 282.06 62.77 274.61 C62.79 273.14 62.8 271.68 62.82 270.17 C62.87 265.51 62.9 260.85 62.92 256.2 C62.96 251.54 63 246.89 63.04 242.24 C63.07 239.35 63.09 236.47 63.11 233.58 C63.24 216.03 64.5 200.69 75.3 186.14 C75.79 185.31 75.79 185.31 78.3 181.14 C79.35 180.17 80.4 179.2 81.48 178.2 C84.3 175.14 84.3 175.14 84.3 169.14 C82.98 168.48 81.66 167.82 80.3 167.14 C77.94 163.48 75.61 159.82 73.3 156.14 C72.64 156.14 71.98 156.14 71.3 156.14 C70.97 154.49 70.64 152.84 70.3 151.14 C69.66 149.73 69.02 148.33 68.36 146.89 C61.67 131.48 61.99 113.72 61.88 97.2 C61.87 96.28 61.87 96.28 61.82 91.62 C61.76 85.79 61.72 79.96 61.67 74.14 C61.63 70.16 61.59 66.19 61.55 62.21 C61.46 52.52 61.37 42.83 61.3 33.14 C52.94 31.09 44.98 30.87 36.42 30.95 C35.01 30.95 33.6 30.95 32.14 30.95 C21.72 30.99 21.72 30.99 18.3 32.14 C17.88 34.57 17.47 37 17.05 39.51 C14.08 55.35 14.08 55.35 9.3 60.14 C6.3 67.14 6.3 67.14 5.3 72.14 C4.64 72.14 3.98 72.14 3.3 72.14 C-3.33 82.02 -3.33 82.02 -4.7 86.14 C-5.36 86.14 -6.02 86.14 -6.7 86.14 C-6.7 86.8 -6.7 87.46 -6.7 88.14 C-7.36 88.14 -8.02 88.14 -8.7 88.14 C-9.53 88.96 -9.53 88.96 -13.7 93.14 C-13.7 93.8 -13.7 94.46 -13.7 95.14 C-14.53 95.47 -14.53 95.47 -18.7 97.14 C-21.38 99.13 -24.04 101.13 -26.7 103.14 C-52.22 115.89 -79.01 117.76 -106.7 112.14 C-108.35 111.48 -110 110.82 -111.7 110.14 C-113.02 110.14 -114.34 110.14 -115.7 110.14 C-115.7 109.48 -115.7 108.82 -115.7 108.14 C-118.34 107.48 -120.98 106.82 -123.7 106.14 C-123.7 105.48 -123.7 104.82 -123.7 104.14 C-124.82 103.64 -125.93 103.15 -127.08 102.64 C-139.53 95.9 -151.32 84.89 -157.7 72.14 C-158.36 72.14 -159.02 72.14 -159.7 72.14 C-159.87 71.15 -159.87 71.15 -160.7 66.14 C-161.36 66.14 -162.02 66.14 -162.7 66.14 C-163.16 64.59 -163.61 63.04 -164.08 61.45 C-165.7 56.14 -165.7 56.14 -167.7 51.14 C-168.54 46.43 -169.23 41.72 -169.92 36.99 C-170.18 35.72 -170.44 34.45 -170.7 33.14 C-177.35 29.81 -187.11 31.02 -194.4 31.04 C-196.35 31.04 -198.3 31.04 -200.31 31.05 C-202.32 31.06 -204.32 31.06 -206.39 31.07 C-207.42 31.08 -207.42 31.08 -212.6 31.09 C-217.63 31.1 -222.67 31.11 -227.7 31.14 Z " fill="#7153C9" transform="translate(408.703857421875,503.86474609375)"/>
</svg>
