<?xml version="1.0" encoding="UTF-8"?>
<!-- Generator: visioncortex VTracer 0.6.12 -->
<svg version="1.1" xmlns="http://www.w3.org/2000/svg" viewBox="0 0 1020 932">
<path d="M0 0 C1.81 0.02 3.62 0.04 5.48 0.06 C5.98 0.07 5.98 0.07 8.5 0.09 C11.81 0.12 15.11 0.16 18.42 0.2 C20.7 0.23 22.99 0.25 25.27 0.27 C31.3 0.34 37.33 0.41 43.36 0.48 C49.51 0.55 55.65 0.61 61.8 0.68 C73.87 0.81 85.94 0.94 98.01 1.08 C98.02 2.65 98.02 4.22 98.03 5.84 C98.11 20.66 98.2 35.48 98.29 50.29 C98.34 57.91 98.39 65.53 98.43 73.14 C98.47 80.5 98.51 87.85 98.57 95.2 C98.58 98 98.6 100.81 98.61 103.61 C98.63 107.54 98.66 111.47 98.69 115.4 C98.69 116.56 98.69 117.71 98.7 118.9 C98.76 125.23 99.39 130.97 101.01 137.08 C101.67 137.08 102.33 137.08 103.01 137.08 C103.01 137.74 103.01 138.4 103.01 139.08 C103.67 139.08 104.33 139.08 105.01 139.08 C106 140.73 106.99 142.38 108.01 144.08 C121.03 156.05 135.6 155.62 152.5 155.48 C166.83 155.59 166.83 155.59 173.01 161.08 C175.63 166.32 175.27 170.28 175.01 176.08 C173.01 181.08 173.01 181.08 170.01 184.08 C162.01 186.74 154.51 187.64 146.13 188.08 C137.12 188.66 128.75 189.68 120.01 192.08 C119.35 192.08 118.69 192.08 118.01 192.08 C118.01 192.74 118.01 193.4 118.01 194.08 C116.36 194.74 114.71 195.4 113.01 196.08 C106.23 202.18 106.23 202.18 105.01 207.08 C104.35 207.08 103.69 207.08 103.01 207.08 C102.72 208.4 102.43 209.72 102.13 211.08 C101.01 216.08 101.01 216.08 99.94 219.5 C98.65 225.83 98.8 231.93 98.88 238.37 C98.89 239.75 98.9 241.12 98.91 242.54 C98.94 248.4 98.99 254.26 99.05 260.12 C99.08 264.41 99.11 268.7 99.13 273 C99.14 273.65 99.14 273.65 99.18 276.94 C99.25 290.09 97.5 301.73 93.01 314.08 C92.34 316.08 91.67 318.08 91.01 320.08 C90.35 320.08 89.69 320.08 89.01 320.08 C88.35 321.73 87.69 323.38 87.01 325.08 C85.03 330.02 83.75 331.59 80.01 335.08 C79.13 335.98 78.26 336.88 77.36 337.8 C63.33 352.11 44.23 362.33 23.7 363.23 C19.45 363.25 15.2 363.27 10.94 363.27 C9.48 363.28 8.02 363.29 6.51 363.31 C-1.62 363.32 -9.05 362.85 -16.99 361.08 C-18.41 360.78 -19.83 360.47 -21.29 360.15 C-28.36 358.44 -34.58 356.62 -40.99 353.08 C-45.77 351.11 -50.53 349.24 -55.43 347.58 C-58.99 346.08 -58.99 346.08 -61.99 342.08 C-63.98 341.06 -65.98 340.07 -67.99 339.08 C-70 337.43 -72 335.76 -73.99 334.08 C-74.98 333.75 -75.97 333.42 -76.99 333.08 C-78.68 331.44 -80.34 329.77 -81.99 328.08 C-89.33 321.53 -89.33 321.53 -92.99 319.08 C-92.99 318.42 -92.99 317.76 -92.99 317.08 C-93.65 317.08 -94.31 317.08 -94.99 317.08 C-95.69 316.24 -96.4 315.39 -97.12 314.52 C-99.99 311.08 -99.99 311.08 -104.31 307.33 C-105.52 306.26 -106.74 305.19 -107.99 304.08 C-107.99 303.42 -107.99 302.76 -107.99 302.08 C-109.31 301.42 -110.63 300.76 -111.99 300.08 C-114.33 298.09 -116.66 296.09 -118.99 294.08 C-123.34 290.99 -127.82 288.59 -132.62 286.27 C-139.61 282.81 -146.38 279.22 -152.99 275.08 C-152.99 274.42 -152.99 273.76 -152.99 273.08 C-154.64 272.42 -156.29 271.76 -157.99 271.08 C-157.99 270.42 -157.99 269.76 -157.99 269.08 C-159.64 268.42 -161.29 267.76 -162.99 267.08 C-171.84 260.97 -178.85 253.04 -185.99 245.08 C-186.98 244.09 -187.97 243.1 -188.99 242.08 C-189.38 241.37 -189.38 241.37 -191.37 237.77 C-193.64 233.71 -195.97 230.58 -198.99 227.08 C-201.99 222.08 -201.99 222.08 -203.56 217.89 C-204.99 214.08 -204.99 214.08 -206.99 212.08 C-210.52 203.42 -212.67 194.64 -214.68 185.52 C-214.99 184.17 -215.29 182.83 -215.61 181.44 C-218.89 166.8 -219.26 152.52 -219.51 137.56 C-219.54 136.05 -219.58 134.53 -219.61 132.97 C-219.64 131.6 -219.66 130.23 -219.69 128.82 C-220.31 121.2 -223.38 117.09 -227.99 111.08 C-227.99 110.42 -227.99 109.76 -227.99 109.08 C-228.49 108.92 -228.49 108.92 -230.99 108.08 C-231.65 106.43 -232.31 104.78 -232.99 103.08 C-235.65 98.98 -238.35 94.95 -241.24 91.02 C-243.37 87.46 -244 84.11 -244.99 80.08 C-245.76 78.58 -246.52 77.07 -247.31 75.52 C-253.85 61.26 -255.44 45.95 -255.49 30.46 C-255.5 29.23 -255.5 27.99 -255.51 26.73 C-255.4 18.46 -254.32 11.03 -251.99 3.08 C-247.54 1.6 -243.31 1.95 -238.62 1.95 C-237.55 1.95 -236.48 1.95 -235.38 1.95 C-231.85 1.94 -228.31 1.95 -224.78 1.95 C-222.33 1.95 -219.87 1.95 -217.42 1.95 C-212.28 1.95 -207.13 1.95 -201.99 1.95 C-195.39 1.96 -188.79 1.95 -182.19 1.95 C-177.13 1.94 -172.06 1.95 -167 1.95 C-164.56 1.95 -162.13 1.95 -159.7 1.95 C-156.3 1.94 -152.9 1.95 -149.5 1.95 C-147.56 1.95 -145.62 1.95 -143.63 1.96 C-138.99 2.08 -138.99 2.08 -134.99 3.08 C-134.07 7.68 -133.79 11.79 -133.62 16.46 C-133.03 27.88 -131.29 38.45 -126.99 49.08 C-126.99 50.07 -126.99 51.06 -126.99 52.08 C-126.33 52.08 -125.67 52.08 -124.99 52.08 C-124.56 53.18 -124.13 54.27 -123.68 55.39 C-121.99 59.08 -121.99 59.08 -118.99 62.08 C-117.9 63.38 -116.81 64.68 -115.68 66.02 C-111.78 70.31 -108.5 73.25 -102.99 75.08 C-102.99 75.74 -102.99 76.4 -102.99 77.08 C-101.94 77.35 -100.89 77.62 -99.81 77.89 C-95.99 79.08 -95.99 79.08 -90.99 82.08 C-84 83.1 -77.05 83.24 -69.99 83.27 C-69.07 83.28 -69.07 83.28 -64.43 83.31 C-59.07 83.09 -54.23 82.19 -48.99 81.08 C-47.01 81.08 -45.03 81.08 -42.99 81.08 C-42.99 80.42 -42.99 79.76 -42.99 79.08 C-34.19 73.48 -34.19 73.48 -29.99 72.08 C-29.66 71.42 -29.66 71.42 -27.99 68.08 C-27.09 67.05 -26.18 66.02 -25.24 64.96 C-19.98 58.69 -15.81 51.77 -12.99 44.08 C-12.65 43.17 -12.31 42.25 -11.96 41.31 C-8.84 31.92 -8.48 22.94 -8.36 13.09 C-7.87 6.43 -7.39 0.15 0 0 Z " fill="#D5C6FB" transform="translate(402.99256896972656,503.91770935058594)"/>
<path d="M0 0 C5.16 3.74 5.86 9.26 7.19 15.31 C7.7 20.21 7.79 25.07 7.81 30 C8.04 51.53 8.04 51.53 13.19 58.19 C17.67 61.69 21.82 63.46 27.19 65.31 C28.84 65.97 30.49 66.63 32.19 67.31 C38.61 68.66 45.05 68.42 51.58 68.38 C52.93 68.37 54.28 68.37 55.68 68.36 C58.61 68.35 61.54 68.34 64.47 68.33 C69.11 68.3 73.74 68.29 78.38 68.28 C91.55 68.25 104.73 68.2 117.9 68.14 C125.96 68.1 134.02 68.08 142.08 68.07 C145.16 68.06 148.24 68.05 151.31 68.03 C155.6 68 159.89 67.99 164.18 67.99 C165.46 67.98 166.74 67.96 168.06 67.95 C176.85 67.97 176.85 67.97 180.19 71.31 C185.57 90.46 184.64 115.85 177.19 134.31 C175.91 137.51 174.71 140.74 173.62 144 C172.19 148.31 172.19 148.31 171.19 150.31 C170.53 150.31 169.87 150.31 169.19 150.31 C169.02 151.24 168.86 152.17 168.69 153.12 C166.94 158.01 164.35 161.34 161.23 165.45 C158.33 169.52 156.29 173.78 154.19 178.31 C153.53 178.31 152.87 178.31 152.19 178.31 C152.18 179.01 152.18 179.01 152.16 182.52 C152.11 187.8 152.05 193.08 151.98 198.36 C151.95 200.62 151.93 202.88 151.92 205.14 C151.75 229.73 149.36 253.96 138.19 276.31 C137.53 276.31 136.87 276.31 136.19 276.31 C135.86 277.96 135.53 279.61 135.19 281.31 C133.31 286.56 133.31 286.56 131.19 291.31 C130.2 291.64 129.21 291.97 128.19 292.31 C127.88 293.24 127.57 294.17 127.25 295.12 C126.19 298.31 126.19 298.31 122.19 302.31 C121.59 303.38 120.99 304.46 120.38 305.56 C117.78 310.01 114.61 313.48 111.19 317.31 C110.12 318.78 109.04 320.24 107.94 321.75 C103.52 327.13 98.68 331.09 93.19 335.31 C92.08 336.19 90.98 337.06 89.84 337.96 C81.18 344.75 81.18 344.75 76.45 347.44 C73.19 349.31 73.19 349.31 70.69 351.94 C67.56 354.9 65.37 355.27 61.19 356.31 C57.9 357.57 54.63 358.87 51.37 360.19 C48.29 361.28 45.42 361.88 42.19 362.31 C42.19 362.97 42.19 363.63 42.19 364.31 C39.88 364.64 37.57 364.97 35.19 365.31 C34.86 366.3 34.53 367.29 34.19 368.31 C33.56 368.85 33.56 368.85 30.38 371.56 C26.44 375.09 24.64 377.74 22.19 382.31 C20.06 384.69 20.06 384.69 17.19 387.31 C16.46 387.98 15.74 388.65 15 389.34 C-16.65 418.31 -16.65 418.31 -27.81 418.31 C-27.81 418.97 -27.81 419.63 -27.81 420.31 C-33.59 422.75 -39.41 424.92 -45.38 426.88 C-46.57 427.27 -47.77 427.66 -49 428.07 C-62.43 431.55 -75.53 432.8 -89.38 433 C-90.97 433.03 -92.56 433.07 -94.2 433.1 C-98.07 433.18 -101.94 433.25 -105.81 433.31 C-105.81 432.65 -105.81 431.99 -105.81 431.31 C-108.59 430.62 -111.39 429.98 -114.19 429.38 C-120.41 427.95 -125.98 425.88 -131.81 423.31 C-131.81 422.65 -131.81 421.99 -131.81 421.31 C-133.46 420.98 -135.11 420.65 -136.81 420.31 C-138.13 418.99 -139.45 417.67 -140.81 416.31 C-141.43 415.81 -141.43 415.81 -144.56 413.25 C-149.48 408.7 -153.05 403.82 -156.81 398.31 C-157.64 397.18 -158.46 396.04 -159.31 394.88 C-160.81 392.31 -160.81 392.31 -160.81 388.31 C-161.47 388.31 -162.13 388.31 -162.81 388.31 C-168.35 361.28 -174.92 324.62 -165.81 297.31 C-159.99 294.4 -152.57 296.5 -146.5 297.81 C-133.37 300.43 -120.47 300.85 -107.81 296.31 C-106.49 296.31 -105.17 296.31 -103.81 296.31 C-103.81 295.65 -103.81 294.99 -103.81 294.31 C-103.25 294.07 -103.25 294.07 -100.38 292.81 C-88.56 286.34 -81.84 276.84 -76.88 264.5 C-74.85 256.51 -74.6 248.59 -74.56 240.38 C-74.54 239.34 -74.52 238.31 -74.5 237.24 C-74.45 227.75 -77.02 220.46 -81.19 212.06 C-81.75 210.9 -82.32 209.74 -82.9 208.55 C-84.86 205.24 -87.07 202.97 -89.81 200.31 C-89.81 199.65 -89.81 198.99 -89.81 198.31 C-90.8 197.98 -91.79 197.65 -92.81 197.31 C-96.81 192.86 -96.81 192.86 -96.81 190.31 C-98.13 189.98 -99.45 189.65 -100.81 189.31 C-102.48 187.98 -104.15 186.65 -105.81 185.31 C-120.32 179.51 -139.75 180.99 -154.72 184.64 C-159.1 185.59 -163.35 185.52 -167.81 185.31 C-169.02 179.27 -168.96 173.43 -168.95 167.3 C-168.95 166 -168.95 164.7 -168.95 163.36 C-168.95 159.11 -168.95 154.87 -168.94 150.62 C-168.94 149.19 -168.94 147.75 -168.93 146.27 C-168.92 128.05 -168.8 109.84 -168.38 91.62 C-168.34 89.91 -168.3 88.2 -168.26 86.44 C-167.95 74.98 -167.95 74.98 -166.81 69.31 C-165.58 69.3 -164.34 69.3 -163.07 69.29 C-151.39 69.21 -139.71 69.12 -128.03 69.02 C-122.03 68.98 -116.02 68.93 -110.02 68.89 C-104.22 68.85 -98.41 68.81 -92.61 68.75 C-90.41 68.74 -88.2 68.72 -86 68.71 C-74.44 68.65 -63.22 68.31 -51.81 66.31 C-50 66.02 -48.18 65.74 -46.31 65.44 C-41.94 64.34 -39.38 62.98 -35.81 60.31 C-35.15 60.31 -34.49 60.31 -33.81 60.31 C-33.48 59.32 -33.15 58.33 -32.81 57.31 C-32.15 57.31 -31.49 57.31 -30.81 57.31 C-27.72 51.13 -25.47 46.17 -25.15 39.2 C-25.08 37.87 -25.01 36.54 -24.94 35.17 C-24.87 33.79 -24.81 32.42 -24.75 31 C-23.61 7.11 -23.61 7.11 -17.81 1.31 C-11.45 -1.23 -6.69 -1.21 0 0 Z " fill="#FDDDC6" transform="translate(697.8125,435.6875)"/>
<path d="M0 0 C1.5 4.5 1.12 8.79 1.11 13.53 C1.11 14.61 1.11 15.7 1.11 16.81 C1.11 20.4 1.11 23.99 1.1 27.57 C1.1 30.06 1.09 32.54 1.09 35.03 C1.09 41.57 1.08 48.12 1.07 54.66 C1.06 61.34 1.05 68.01 1.05 74.69 C1.04 87.79 1.02 100.9 1 114 C0.11 114.03 0.11 114.03 -4.39 114.18 C-6.75 114.26 -9.11 114.34 -11.47 114.43 C-12.64 114.46 -13.81 114.5 -15.01 114.54 C-35.15 115.27 -49.11 120.28 -63.31 135.38 C-66.9 139.88 -68.92 143.66 -71 149 C-71.36 149.78 -71.36 149.78 -73.19 153.75 C-76.53 161.59 -76.25 169.13 -76.31 177.5 C-76.33 178.15 -76.33 178.15 -76.4 181.44 C-76.52 199.45 -70.11 212.86 -58 226 C-57.01 226.66 -56.02 227.32 -55 228 C-55 228.66 -55 229.32 -55 230 C-53.35 230.66 -51.7 231.32 -50 232 C-48.35 232.99 -46.7 233.98 -45 235 C-45 235.66 -45 236.32 -45 237 C-43.35 237.33 -41.7 237.66 -40 238 C-38.37 238.5 -36.74 239.01 -35.07 239.52 C-28.38 241.37 -21.84 241.52 -14.94 241.62 C-2.21 241.89 -2.21 241.89 0 243 C5.75 260.24 2.15 284.14 2.13 302.1 C2.12 307.58 2.13 313.06 2.14 318.53 C2.14 322.04 2.13 325.56 2.13 329.07 C2.13 330.69 2.14 332.31 2.14 333.98 C2.09 357.91 2.09 357.91 0 360 C-3.43 360.08 -6.86 360.1 -10.3 360.08 C-11.38 360.08 -12.46 360.08 -13.58 360.07 C-15.94 360.07 -18.3 360.06 -20.67 360.04 C-24.41 360.03 -28.16 360.02 -31.9 360.01 C-42.56 359.98 -53.22 359.95 -63.87 359.9 C-70.38 359.88 -76.89 359.86 -83.4 359.85 C-85.88 359.84 -88.36 359.83 -90.83 359.82 C-94.32 359.8 -97.8 359.79 -101.28 359.79 C-103.26 359.78 -105.24 359.77 -107.27 359.77 C-115.26 360.09 -122.52 361.01 -130 364 C-130.99 364 -131.98 364 -133 364 C-133.33 364.99 -133.66 365.98 -134 367 C-136.66 369.01 -139.33 371.01 -142 373 C-148.78 380.49 -148.87 388.7 -149.77 398.34 C-150.39 404.37 -150.97 409.62 -154 415 C-159.11 419.04 -162.95 420.16 -169.38 420.25 C-170.5 420.28 -171.62 420.3 -172.77 420.33 C-176 420 -176 420 -181 417 C-181.66 415.68 -182.32 414.36 -183 413 C-183.99 412.67 -184.98 412.34 -186 412 C-186.09 411.16 -186.19 410.32 -186.28 409.45 C-189.94 378.67 -189.94 378.67 -202 369 C-202.88 368.27 -203.75 367.55 -204.65 366.8 C-214.02 359.61 -226.81 360.86 -238.07 360.81 C-239.21 360.8 -240.35 360.79 -241.52 360.79 C-243.97 360.77 -246.43 360.75 -248.88 360.74 C-252.75 360.72 -256.62 360.69 -260.5 360.66 C-270.11 360.59 -279.72 360.53 -289.33 360.47 C-297.47 360.42 -305.62 360.37 -313.77 360.31 C-317.6 360.28 -321.42 360.26 -325.24 360.24 C-327.57 360.22 -329.9 360.21 -332.22 360.19 C-333.29 360.19 -334.36 360.18 -335.46 360.18 C-342.77 360.11 -342.77 360.11 -345 359 C-353.86 342.77 -346.94 317.15 -342.3 300.3 C-340.81 295.36 -339.06 290.73 -337 286 C-335.58 282.23 -334.17 278.46 -332.77 274.68 C-332.33 273.51 -331.89 272.33 -331.44 271.12 C-331.02 270.01 -330.61 268.9 -330.18 267.76 C-329 265 -329 265 -327 263 C-326.77 262.46 -326.77 262.46 -325.62 259.75 C-324.05 256.12 -322.21 253.28 -320 250 C-317.95 246.36 -315.98 242.68 -314 239 C-313.34 239 -312.68 239 -312 239 C-312 238.01 -312 237.02 -312 236 C-311.34 235.67 -310.68 235.34 -310 235 C-308.95 233.02 -307.95 231.03 -307 229 C-306.34 229 -305.68 229 -305 229 C-303.43 221.84 -302.57 214.88 -302.06 207.56 C-300.43 186.45 -296.47 167.45 -288 148 C-287.34 146.35 -286.68 144.7 -286 143 C-285.34 143 -284.68 143 -284 143 C-283.67 141.68 -283.34 140.36 -283 139 C-282.01 137.35 -281.02 135.7 -280 134 C-279.34 132.35 -278.68 130.7 -278 129 C-276.04 126.64 -274.03 124.31 -272 122 C-268.71 117.75 -265.77 113.61 -263 109 C-262.34 109 -261.68 109 -261 109 C-261 108.34 -261 107.68 -261 107 C-260.34 107 -259.68 107 -259 107 C-258.67 106.34 -258.67 106.34 -257 103 C-254.51 101.22 -252.01 99.44 -249.46 97.73 C-247 96 -247 96 -244.31 93.31 C-241.49 90.49 -238.47 88.99 -235 87 C-233.16 85.55 -231.33 84.09 -229.5 82.62 C-222.83 77.54 -215.83 74.85 -208 72 C-205.72 71.05 -203.45 70.1 -201.19 69.12 C-196 67 -196 67 -194 67 C-194 66.34 -194 65.68 -194 65 C-193.01 65 -192.02 65 -191 65 C-191 64.01 -191 63.02 -191 62 C-189.68 61.34 -188.36 60.68 -187 60 C-185.39 58.03 -183.86 56 -182.38 53.94 C-175.19 44.38 -166.84 37.64 -157 31 C-156.18 30.4 -155.35 29.8 -154.5 29.19 C-140.45 19 -140.45 19 -135 19 C-135 18.34 -135 17.68 -135 17 C-133.54 16.48 -132.07 15.97 -130.56 15.44 C-123.96 13.06 -117.55 10.28 -111.11 7.49 C-107 6 -103.34 5.37 -99 5 C-99 4.34 -99 3.68 -99 3 C-70.57 -5.31 -28.07 -13.5 0 0 Z " fill="#FAD2E7" transform="translate(501,117)"/>
<path d="M0 0 C3.25 0.04 6.5 0.04 9.75 0.04 C19.11 0.08 27.89 0.35 37.06 2.41 C38.71 2.72 40.36 3.03 42.06 3.35 C47.19 4.44 52.06 5.84 57.06 7.41 C58.33 7.8 59.59 8.18 60.9 8.58 C68.44 10.88 75.79 13.34 83.06 16.41 C83.06 17.07 83.06 17.73 83.06 18.41 C83.95 18.54 84.83 18.66 85.75 18.79 C89.06 19.41 89.06 19.41 94.06 21.41 C94.06 22.07 94.06 22.73 94.06 23.41 C95.71 23.74 97.36 24.07 99.06 24.41 C101.74 25.94 101.74 25.94 104.5 27.79 C107.3 29.66 109.98 31.37 113.01 32.84 C126.58 39.83 137.95 51.8 147.37 63.54 C153.87 70.37 161.19 73.67 170 76.44 C192.76 83.7 215.55 99.34 230.06 118.41 C230.06 119.07 230.06 119.73 230.06 120.41 C231.05 120.74 232.04 121.07 233.06 121.41 C237.23 126.47 240.21 131.54 243.06 137.41 C244.18 139.29 245.3 141.17 246.44 143.04 C259.13 164.82 262.23 187.84 262.4 212.64 C262.7 227.58 268.89 237.99 278 249.47 C281.06 253.41 281.06 253.41 281.06 255.41 C281.72 255.41 282.38 255.41 283.06 255.41 C286.06 260.41 286.06 260.41 287.62 263.66 C289.06 266.41 289.06 266.41 291.06 267.41 C292.73 270.58 294.29 273.74 295.81 276.97 C296.03 277.45 296.03 277.45 297.17 279.85 C300.92 287.89 304.09 296.06 307.06 304.41 C307.76 306.12 308.46 307.84 309.19 309.6 C314.42 324.31 319.33 345.79 313.78 360.88 C312.06 363.41 312.06 363.41 308.06 365.41 C304.2 365.61 300.41 365.68 296.55 365.67 C295.96 365.67 295.96 365.67 292.98 365.68 C289.09 365.69 285.2 365.68 281.31 365.68 C278.61 365.68 275.91 365.68 273.21 365.68 C267.55 365.69 261.89 365.68 256.23 365.67 C248.96 365.66 241.7 365.67 234.43 365.68 C228.85 365.69 223.28 365.68 217.7 365.68 C215.02 365.68 212.34 365.68 209.66 365.68 C205.92 365.69 202.19 365.68 198.45 365.67 C197.33 365.67 196.22 365.68 195.07 365.68 C187.4 365.64 187.4 365.64 184.06 363.41 C182.83 359.71 182.88 356.57 182.81 352.67 C182.78 351.11 182.75 349.54 182.72 347.94 C182.65 344.66 182.6 341.39 182.54 338.12 C182.05 315.39 182.05 315.39 177.56 306.41 C176.06 303.41 174.56 300.41 173.06 297.41 C172.07 296.42 171.08 295.43 170.06 294.41 C168.97 292.95 167.87 291.48 166.75 289.97 C163.58 286.05 161.26 283.97 157.06 281.41 C157.06 280.75 157.06 280.09 157.06 279.41 C155.76 279 154.46 278.59 153.12 278.16 C148.29 276.49 143.72 274.5 139.06 272.41 C133.58 271.04 128.18 271.15 122.56 271.1 C122 271.08 122 271.08 119.16 271.01 C108.81 270.93 99.73 273.09 91 278.97 C90.12 279.55 89.24 280.13 88.34 280.73 C86.06 282.41 86.06 282.41 83.06 285.41 C82.4 285.41 81.74 285.41 81.06 285.41 C80.73 286.4 80.4 287.39 80.06 288.41 C79.26 289.2 78.45 289.98 77.62 290.79 C75.06 293.41 75.06 293.41 73.06 298.41 C72.4 298.74 71.74 299.07 71.06 299.41 C69.67 303.06 68.33 306.72 67.06 310.41 C66.4 310.41 65.74 310.41 65.06 310.41 C65.06 312.06 65.06 313.71 65.06 315.41 C64.73 315.74 64.4 316.07 64.06 316.41 C63.19 321.94 62.94 327.33 62.92 332.93 C62.9 334.51 62.88 336.09 62.86 337.72 C62.83 341.03 62.81 344.34 62.81 347.65 C62.78 349.23 62.76 350.8 62.73 352.43 C62.73 353.15 62.73 353.15 62.7 356.78 C62.06 360.41 62.06 360.41 60.09 362.61 C55.91 365.1 52.81 364.89 47.96 364.87 C46.09 364.87 44.23 364.87 42.31 364.86 C40.29 364.84 38.26 364.82 36.23 364.8 C34.15 364.79 32.07 364.79 29.99 364.79 C24.53 364.77 19.07 364.73 13.61 364.69 C8.03 364.65 2.45 364.63 -3.12 364.61 C-14.06 364.56 -25 364.5 -35.94 364.41 C-35.95 362.78 -35.95 361.15 -35.96 359.47 C-36.01 344.08 -36.09 328.69 -36.17 313.3 C-36.22 305.39 -36.26 297.47 -36.29 289.56 C-36.31 281.92 -36.35 274.29 -36.4 266.65 C-36.42 263.74 -36.43 260.83 -36.44 257.91 C-36.45 253.83 -36.47 249.75 -36.51 245.66 C-36.51 244.47 -36.5 243.27 -36.5 242.03 C-36.61 232.67 -38.5 224.73 -42.94 216.41 C-43.43 215.19 -43.93 213.98 -44.44 212.72 C-46.5 208.17 -48.47 206.64 -52.94 204.41 C-52.94 203.75 -52.94 203.09 -52.94 202.41 C-62.64 200.05 -72.03 198.01 -82.02 197.59 C-84.94 197.41 -84.94 197.41 -89.94 196.41 C-90.27 195.75 -90.6 195.09 -90.94 194.41 C-91.93 194.08 -92.92 193.75 -93.94 193.41 C-94.02 190 -94.08 186.58 -94.13 183.16 C-94.16 181.26 -94.2 179.36 -94.23 177.4 C-93.94 172.41 -93.94 172.41 -90.94 168.41 C-84.67 166.68 -78.4 166.14 -71.94 165.47 C-65.22 164.77 -59.3 163.66 -52.94 161.41 C-51.95 161.08 -50.96 160.75 -49.94 160.41 C-49.94 159.75 -49.94 159.09 -49.94 158.41 C-48.87 157.5 -47.79 156.6 -46.69 155.66 C-40.52 150.32 -38.13 145.24 -35.94 137.41 C-35.69 133.37 -35.58 129.5 -35.63 125.47 C-35.63 124.31 -35.64 123.15 -35.64 121.95 C-35.65 118.13 -35.68 114.31 -35.72 110.49 C-35.73 107.81 -35.74 105.14 -35.74 102.47 C-35.77 95.45 -35.81 88.43 -35.85 81.4 C-35.92 70.17 -35.98 58.94 -36.01 47.71 C-36.03 43.81 -36.06 39.9 -36.09 35.99 C-36.1 33.57 -36.11 31.16 -36.12 28.74 C-36.13 27.66 -36.14 26.59 -36.15 25.48 C-36.17 18.22 -35.28 11.52 -33.94 4.41 C-22.67 -0.05 -11.93 -0.14 0 0 Z " fill="#B6E3EB" transform="translate(566.939208984375,111.58837890625)"/>
<path d="M0 0 C5.16 3.74 5.86 9.26 7.19 15.31 C7.7 20.21 7.79 25.07 7.81 30 C8.04 51.53 8.04 51.53 13.19 58.19 C17.67 61.69 21.82 63.46 27.19 65.31 C28.84 65.97 30.49 66.63 32.19 67.31 C38.61 68.66 45.05 68.42 51.58 68.38 C52.93 68.37 54.28 68.37 55.68 68.36 C58.61 68.35 61.54 68.34 64.47 68.33 C69.11 68.3 73.74 68.29 78.38 68.28 C91.55 68.25 104.73 68.2 117.9 68.14 C125.96 68.1 134.02 68.08 142.08 68.07 C145.16 68.06 148.24 68.05 151.31 68.03 C155.6 68 159.89 67.99 164.18 67.99 C165.46 67.98 166.74 67.96 168.06 67.95 C176.85 67.97 176.85 67.97 180.19 71.31 C185.57 90.46 184.64 115.85 177.19 134.31 C175.91 137.51 174.71 140.74 173.62 144 C172.19 148.31 172.19 148.31 171.19 150.31 C170.53 150.31 169.87 150.31 169.19 150.31 C169.02 151.24 168.86 152.17 168.69 153.12 C166.94 158.01 164.35 161.34 161.23 165.45 C158.33 169.52 156.29 173.78 154.19 178.31 C153.53 178.31 152.87 178.31 152.19 178.31 C152.18 179.01 152.18 179.01 152.16 182.52 C152.11 187.8 152.05 193.08 151.98 198.36 C151.95 200.62 151.93 202.88 151.92 205.14 C151.75 229.73 149.36 253.96 138.19 276.31 C137.53 276.31 136.87 276.31 136.19 276.31 C135.86 277.96 135.53 279.61 135.19 281.31 C133.31 286.56 133.31 286.56 131.19 291.31 C130.2 291.64 129.21 291.97 128.19 292.31 C127.88 293.24 127.57 294.17 127.25 295.12 C126.19 298.31 126.19 298.31 122.19 302.31 C121.59 303.38 120.99 304.46 120.38 305.56 C117.78 310.01 114.61 313.48 111.19 317.31 C110.12 318.78 109.04 320.24 107.94 321.75 C103.52 327.13 98.68 331.09 93.19 335.31 C92.08 336.19 90.98 337.06 89.84 337.96 C81.18 344.75 81.18 344.75 76.45 347.44 C73.19 349.31 73.19 349.31 70.69 351.94 C67.56 354.9 65.37 355.27 61.19 356.31 C57.9 357.57 54.63 358.87 51.37 360.19 C48.29 361.28 45.42 361.88 42.19 362.31 C42.19 362.97 42.19 363.63 42.19 364.31 C39.88 364.64 37.57 364.97 35.19 365.31 C34.86 366.3 34.53 367.29 34.19 368.31 C33.56 368.85 33.56 368.85 30.38 371.56 C26.44 375.09 24.64 377.74 22.19 382.31 C20.06 384.69 20.06 384.69 17.19 387.31 C16.46 387.98 15.74 388.65 15 389.34 C-16.65 418.31 -16.65 418.31 -27.81 418.31 C-27.81 418.97 -27.81 419.63 -27.81 420.31 C-33.59 422.75 -39.41 424.92 -45.38 426.88 C-46.57 427.27 -47.77 427.66 -49 428.07 C-62.43 431.55 -75.53 432.8 -89.38 433 C-90.97 433.03 -92.56 433.07 -94.2 433.1 C-98.07 433.18 -101.94 433.25 -105.81 433.31 C-105.81 432.65 -105.81 431.99 -105.81 431.31 C-108.59 430.62 -111.39 429.98 -114.19 429.38 C-120.41 427.95 -125.98 425.88 -131.81 423.31 C-131.81 422.65 -131.81 421.99 -131.81 421.31 C-133.46 420.98 -135.11 420.65 -136.81 420.31 C-138.13 418.99 -139.45 417.67 -140.81 416.31 C-141.43 415.81 -141.43 415.81 -144.56 413.25 C-149.48 408.7 -153.05 403.82 -156.81 398.31 C-157.64 397.18 -158.46 396.04 -159.31 394.88 C-160.81 392.31 -160.81 392.31 -160.81 388.31 C-161.47 388.31 -162.13 388.31 -162.81 388.31 C-168.35 361.28 -174.92 324.62 -165.81 297.31 C-159.99 294.4 -152.57 296.5 -146.5 297.81 C-133.37 300.43 -120.47 300.85 -107.81 296.31 C-106.49 296.31 -105.17 296.31 -103.81 296.31 C-103.81 295.65 -103.81 294.99 -103.81 294.31 C-103.25 294.07 -103.25 294.07 -100.38 292.81 C-88.56 286.34 -81.84 276.84 -76.88 264.5 C-74.85 256.51 -74.6 248.59 -74.56 240.38 C-74.54 239.34 -74.52 238.31 -74.5 237.24 C-74.45 227.75 -77.02 220.46 -81.19 212.06 C-81.75 210.9 -82.32 209.74 -82.9 208.55 C-84.86 205.24 -87.07 202.97 -89.81 200.31 C-89.81 199.65 -89.81 198.99 -89.81 198.31 C-90.8 197.98 -91.79 197.65 -92.81 197.31 C-96.81 192.86 -96.81 192.86 -96.81 190.31 C-98.13 189.98 -99.45 189.65 -100.81 189.31 C-102.48 187.98 -104.15 186.65 -105.81 185.31 C-120.32 179.51 -139.75 180.99 -154.72 184.64 C-159.1 185.59 -163.35 185.52 -167.81 185.31 C-169.02 179.27 -168.96 173.43 -168.95 167.3 C-168.95 166 -168.95 164.7 -168.95 163.36 C-168.95 159.11 -168.95 154.87 -168.94 150.62 C-168.94 149.19 -168.94 147.75 -168.93 146.27 C-168.92 128.05 -168.8 109.84 -168.38 91.62 C-168.34 89.91 -168.3 88.2 -168.26 86.44 C-167.95 74.98 -167.95 74.98 -166.81 69.31 C-165.58 69.3 -164.34 69.3 -163.07 69.29 C-151.39 69.21 -139.71 69.12 -128.03 69.02 C-122.03 68.98 -116.02 68.93 -110.02 68.89 C-104.22 68.85 -98.41 68.81 -92.61 68.75 C-90.41 68.74 -88.2 68.72 -86 68.71 C-74.44 68.65 -63.22 68.31 -51.81 66.31 C-50 66.02 -48.18 65.74 -46.31 65.44 C-41.94 64.34 -39.38 62.98 -35.81 60.31 C-35.15 60.31 -34.49 60.31 -33.81 60.31 C-33.48 59.32 -33.15 58.33 -32.81 57.31 C-32.15 57.31 -31.49 57.31 -30.81 57.31 C-27.72 51.13 -25.47 46.17 -25.15 39.2 C-25.08 37.87 -25.01 36.54 -24.94 35.17 C-24.87 33.79 -24.81 32.42 -24.75 31 C-23.61 7.11 -23.61 7.11 -17.81 1.31 C-11.45 -1.23 -6.69 -1.21 0 0 Z M-8.81 78.31 C-9.8 79.36 -10.79 80.42 -11.81 81.5 C-16.29 85.77 -19.96 87.23 -25.73 89.17 C-28.81 90.31 -28.81 90.31 -33.81 93.31 C-52.61 99.47 -73.19 97.92 -92.69 97.94 C-97.91 97.95 -103.14 97.98 -108.36 98.01 C-111.59 98.03 -114.83 98.04 -118.06 98.04 C-119.51 98.04 -120.97 98.05 -122.47 98.06 C-123.11 98.06 -123.11 98.06 -126.34 98.06 C-129.85 98.32 -132.58 98.94 -135.81 100.31 C-140.11 108.9 -137.92 122.7 -137.88 132 C-137.87 133.67 -137.87 135.33 -137.86 137.05 C-137.85 141.14 -137.83 145.23 -137.81 149.31 C-136.18 149.49 -134.56 149.68 -132.88 149.86 C-130.71 150.12 -128.54 150.37 -126.38 150.62 C-125.84 150.68 -125.84 150.68 -123.13 150.98 C-116.67 151.75 -110.98 153.13 -104.81 155.31 C-100.75 155.5 -100.75 155.5 -97.81 155.31 C-97.81 155.97 -97.81 156.63 -97.81 157.31 C-96.12 158.08 -94.43 158.84 -92.69 159.62 C-81.55 164.71 -81.55 164.71 -78.38 167.31 C-75.81 169.31 -75.81 169.31 -72.19 170.81 C-68.81 172.31 -68.81 172.31 -65.81 176.31 C-65.15 176.31 -64.49 176.31 -63.81 176.31 C-63.48 177.63 -63.15 178.95 -62.81 180.31 C-62.15 180.48 -62.15 180.48 -58.81 181.31 C-58.63 182.3 -58.44 183.29 -58.25 184.31 C-56.81 188.31 -56.81 188.31 -53.5 191.75 C-48.45 198 -46.84 204.63 -44.81 212.31 C-44.15 212.31 -43.49 212.31 -42.81 212.31 C-39.23 232.91 -37.21 259.1 -46.81 278.31 C-46.81 279.3 -46.81 280.29 -46.81 281.31 C-47.47 281.31 -48.13 281.31 -48.81 281.31 C-50.96 285.52 -52.98 289.71 -54.81 294.06 C-56.81 298.31 -56.81 298.31 -60.81 302.31 C-63.15 304.97 -65.49 307.64 -67.81 310.31 C-69.81 312.31 -69.81 312.31 -74.81 314.31 C-75.6 315.12 -76.39 315.92 -77.2 316.75 C-80.17 319.66 -82.71 320.84 -86.56 322.38 C-90.57 323.99 -94.39 325.61 -98.25 327.56 C-106.77 330.83 -115.82 331.21 -124.88 331.75 C-130.13 332.25 -132.4 332.86 -136.81 335.31 C-137.67 365.09 -137.67 365.09 -132.81 377.31 C-131.82 377.64 -130.83 377.97 -129.81 378.31 C-129.81 378.97 -129.81 379.63 -129.81 380.31 C-129.15 380.64 -128.49 380.97 -127.81 381.31 C-127.65 381.81 -127.65 381.81 -126.81 384.31 C-125.49 385.63 -124.17 386.95 -122.81 388.31 C-121.82 388.31 -120.83 388.31 -119.81 388.31 C-119.15 389.63 -118.49 390.95 -117.81 392.31 C-114.81 394.31 -114.81 394.31 -111.81 394.31 C-111.81 394.97 -111.81 395.63 -111.81 396.31 C-110.16 396.31 -108.51 396.31 -106.81 396.31 C-106.81 396.97 -106.81 397.63 -106.81 398.31 C-105.16 398.31 -103.51 398.31 -101.81 398.31 C-101.81 398.97 -101.81 399.63 -101.81 400.31 C-62.07 401.26 -62.07 401.26 -48.81 391.31 C-47.37 390.94 -45.92 390.57 -44.44 390.19 C-29.71 385.28 -9.43 371.19 -2.12 357.04 C-1.69 356.14 -1.26 355.24 -0.81 354.31 C-0.15 353.98 0.51 353.65 1.19 353.31 C1.85 351.99 2.51 350.67 3.19 349.31 C3.68 348.82 3.68 348.82 6.19 346.31 C6.83 345.32 7.47 344.33 8.12 343.31 C12.02 337.64 16.67 336.32 23 334.38 C24.69 333.85 26.39 333.33 28.13 332.79 C32.53 331.5 36.92 330.38 41.38 329.31 C47.46 327.75 51.34 325.39 56.19 321.31 C57.63 320.61 59.08 319.91 60.56 319.19 C64.19 317.31 64.19 317.31 66.19 313.31 C68.18 312.63 70.18 311.97 72.19 311.31 C76.19 308.29 79.69 304.9 83.19 301.31 C84.4 300.14 85.62 298.96 86.88 297.75 C90.19 294.31 92.19 292.19 92.19 287.31 C92.85 287.31 93.51 287.31 94.19 287.31 C98.72 282.78 101.29 277.93 104.19 272.31 C104.73 271.28 105.28 270.24 105.84 269.17 C108.54 263.93 110.66 259.03 112.19 253.31 C112.85 252.98 113.51 252.65 114.19 252.31 C119.28 236.86 121.05 222.54 120.19 206.31 C115.47 203.95 109.14 205.08 104.19 206.31 C100.3 206.44 96.45 206.5 92.56 206.5 C91.52 206.51 90.48 206.52 89.4 206.54 C82.74 206.55 76.72 205.76 70.19 204.31 C68.87 204.31 67.55 204.31 66.19 204.31 C65.86 203.32 65.53 202.33 65.19 201.31 C62.54 199.94 59.87 198.61 57.19 197.31 C53.07 194.47 51.89 192.82 49.19 188.31 C48.53 188.31 47.87 188.31 47.19 188.31 C44.51 181.62 42.91 176.95 42.94 169.75 C42.93 169.01 42.93 169.01 42.92 165.25 C43.19 161.31 43.19 161.31 45.19 157.31 C46.18 156.65 47.17 155.99 48.19 155.31 C48.19 154.65 48.19 153.99 48.19 153.31 C49.18 153.31 50.17 153.31 51.19 153.31 C51.19 152.65 51.19 151.99 51.19 151.31 C61.64 151.07 61.64 151.07 65.66 154.29 C69.17 158.52 71.04 161.75 72.44 167.12 C74.38 171.78 75.02 172.29 79.38 174.38 C90.2 178.13 101.28 177.76 111.62 172.82 C115.76 170.39 119.99 167.7 122.19 163.31 C123.84 162.32 125.49 161.33 127.19 160.31 C127.19 159.32 127.19 158.33 127.19 157.31 C128.51 156.65 129.83 155.99 131.19 155.31 C131.85 153.99 132.51 152.67 133.19 151.31 C134.18 150.32 135.17 149.33 136.19 148.31 C136.19 147.65 136.19 146.99 136.19 146.31 C137.51 145.65 138.83 144.99 140.19 144.31 C141.38 141.77 141.38 141.77 142.31 138.69 C142.64 137.6 142.98 136.51 143.32 135.38 C151.79 105.52 151.79 105.52 148.19 98.31 C146.66 98.31 145.13 98.31 143.56 98.3 C129.14 98.26 114.72 98.21 100.31 98.13 C92.89 98.09 85.48 98.06 78.07 98.04 C70.91 98.03 63.75 97.99 56.6 97.94 C53.87 97.93 51.15 97.92 48.42 97.92 C44.59 97.92 40.76 97.89 36.93 97.86 C36.37 97.86 36.37 97.86 33.55 97.87 C24.11 97.75 14.36 96.05 7.06 89.56 C3.19 86.31 3.19 86.31 1.19 86.31 C0.86 85.65 0.86 85.65 -0.81 82.31 C-1.47 82.31 -2.13 82.31 -2.81 82.31 C-3.14 80.99 -3.47 79.67 -3.81 78.31 C-5.46 78.31 -7.11 78.31 -8.81 78.31 Z " fill="#E6884C" transform="translate(697.8125,435.6875)"/>
<path d="M0 0 C1.81 0.02 3.62 0.04 5.48 0.06 C5.98 0.07 5.98 0.07 8.5 0.09 C11.81 0.12 15.11 0.16 18.42 0.2 C20.7 0.23 22.99 0.25 25.27 0.27 C31.3 0.34 37.33 0.41 43.36 0.48 C49.51 0.55 55.65 0.61 61.8 0.68 C73.87 0.81 85.94 0.94 98.01 1.08 C98.02 2.65 98.02 4.22 98.03 5.84 C98.11 20.66 98.2 35.48 98.29 50.29 C98.34 57.91 98.39 65.53 98.43 73.14 C98.47 80.5 98.51 87.85 98.57 95.2 C98.58 98 98.6 100.81 98.61 103.61 C98.63 107.54 98.66 111.47 98.69 115.4 C98.69 116.56 98.69 117.71 98.7 118.9 C98.76 125.23 99.39 130.97 101.01 137.08 C101.67 137.08 102.33 137.08 103.01 137.08 C103.01 137.74 103.01 138.4 103.01 139.08 C103.67 139.08 104.33 139.08 105.01 139.08 C106 140.73 106.99 142.38 108.01 144.08 C121.03 156.05 135.6 155.62 152.5 155.48 C166.83 155.59 166.83 155.59 173.01 161.08 C175.63 166.32 175.27 170.28 175.01 176.08 C173.01 181.08 173.01 181.08 170.01 184.08 C162.01 186.74 154.51 187.64 146.13 188.08 C137.12 188.66 128.75 189.68 120.01 192.08 C119.35 192.08 118.69 192.08 118.01 192.08 C118.01 192.74 118.01 193.4 118.01 194.08 C116.36 194.74 114.71 195.4 113.01 196.08 C106.23 202.18 106.23 202.18 105.01 207.08 C104.35 207.08 103.69 207.08 103.01 207.08 C102.72 208.4 102.43 209.72 102.13 211.08 C101.01 216.08 101.01 216.08 99.94 219.5 C98.65 225.83 98.8 231.93 98.88 238.37 C98.89 239.75 98.9 241.12 98.91 242.54 C98.94 248.4 98.99 254.26 99.05 260.12 C99.08 264.41 99.11 268.7 99.13 273 C99.14 273.65 99.14 273.65 99.18 276.94 C99.25 290.09 97.5 301.73 93.01 314.08 C92.34 316.08 91.67 318.08 91.01 320.08 C90.35 320.08 89.69 320.08 89.01 320.08 C88.35 321.73 87.69 323.38 87.01 325.08 C85.03 330.02 83.75 331.59 80.01 335.08 C79.13 335.98 78.26 336.88 77.36 337.8 C63.33 352.11 44.23 362.33 23.7 363.23 C19.45 363.25 15.2 363.27 10.94 363.27 C9.48 363.28 8.02 363.29 6.51 363.31 C-1.62 363.32 -9.05 362.85 -16.99 361.08 C-18.41 360.78 -19.83 360.47 -21.29 360.15 C-28.36 358.44 -34.58 356.62 -40.99 353.08 C-45.77 351.11 -50.53 349.24 -55.43 347.58 C-58.99 346.08 -58.99 346.08 -61.99 342.08 C-63.98 341.06 -65.98 340.07 -67.99 339.08 C-70 337.43 -72 335.76 -73.99 334.08 C-74.98 333.75 -75.97 333.42 -76.99 333.08 C-78.68 331.44 -80.34 329.77 -81.99 328.08 C-89.33 321.53 -89.33 321.53 -92.99 319.08 C-92.99 318.42 -92.99 317.76 -92.99 317.08 C-93.65 317.08 -94.31 317.08 -94.99 317.08 C-95.69 316.24 -96.4 315.39 -97.12 314.52 C-99.99 311.08 -99.99 311.08 -104.31 307.33 C-105.52 306.26 -106.74 305.19 -107.99 304.08 C-107.99 303.42 -107.99 302.76 -107.99 302.08 C-109.31 301.42 -110.63 300.76 -111.99 300.08 C-114.33 298.09 -116.66 296.09 -118.99 294.08 C-123.34 290.99 -127.82 288.59 -132.62 286.27 C-139.61 282.81 -146.38 279.22 -152.99 275.08 C-152.99 274.42 -152.99 273.76 -152.99 273.08 C-154.64 272.42 -156.29 271.76 -157.99 271.08 C-157.99 270.42 -157.99 269.76 -157.99 269.08 C-159.64 268.42 -161.29 267.76 -162.99 267.08 C-171.84 260.97 -178.85 253.04 -185.99 245.08 C-186.98 244.09 -187.97 243.1 -188.99 242.08 C-189.38 241.37 -189.38 241.37 -191.37 237.77 C-193.64 233.71 -195.97 230.58 -198.99 227.08 C-201.99 222.08 -201.99 222.08 -203.56 217.89 C-204.99 214.08 -204.99 214.08 -206.99 212.08 C-210.52 203.42 -212.67 194.64 -214.68 185.52 C-214.99 184.17 -215.29 182.83 -215.61 181.44 C-218.89 166.8 -219.26 152.52 -219.51 137.56 C-219.54 136.05 -219.58 134.53 -219.61 132.97 C-219.64 131.6 -219.66 130.23 -219.69 128.82 C-220.31 121.2 -223.38 117.09 -227.99 111.08 C-227.99 110.42 -227.99 109.76 -227.99 109.08 C-228.49 108.92 -228.49 108.92 -230.99 108.08 C-231.65 106.43 -232.31 104.78 -232.99 103.08 C-235.65 98.98 -238.35 94.95 -241.24 91.02 C-243.37 87.46 -244 84.11 -244.99 80.08 C-245.76 78.58 -246.52 77.07 -247.31 75.52 C-253.85 61.26 -255.44 45.95 -255.49 30.46 C-255.5 29.23 -255.5 27.99 -255.51 26.73 C-255.4 18.46 -254.32 11.03 -251.99 3.08 C-247.54 1.6 -243.31 1.95 -238.62 1.95 C-237.55 1.95 -236.48 1.95 -235.38 1.95 C-231.85 1.94 -228.31 1.95 -224.78 1.95 C-222.33 1.95 -219.87 1.95 -217.42 1.95 C-212.28 1.95 -207.13 1.95 -201.99 1.95 C-195.39 1.96 -188.79 1.95 -182.19 1.95 C-177.13 1.94 -172.06 1.95 -167 1.95 C-164.56 1.95 -162.13 1.95 -159.7 1.95 C-156.3 1.94 -152.9 1.95 -149.5 1.95 C-147.56 1.95 -145.62 1.95 -143.63 1.96 C-138.99 2.08 -138.99 2.08 -134.99 3.08 C-134.07 7.68 -133.79 11.79 -133.62 16.46 C-133.03 27.88 -131.29 38.45 -126.99 49.08 C-126.99 50.07 -126.99 51.06 -126.99 52.08 C-126.33 52.08 -125.67 52.08 -124.99 52.08 C-124.56 53.18 -124.13 54.27 -123.68 55.39 C-121.99 59.08 -121.99 59.08 -118.99 62.08 C-117.9 63.38 -116.81 64.68 -115.68 66.02 C-111.78 70.31 -108.5 73.25 -102.99 75.08 C-102.99 75.74 -102.99 76.4 -102.99 77.08 C-101.94 77.35 -100.89 77.62 -99.81 77.89 C-95.99 79.08 -95.99 79.08 -90.99 82.08 C-84 83.1 -77.05 83.24 -69.99 83.27 C-69.07 83.28 -69.07 83.28 -64.43 83.31 C-59.07 83.09 -54.23 82.19 -48.99 81.08 C-47.01 81.08 -45.03 81.08 -42.99 81.08 C-42.99 80.42 -42.99 79.76 -42.99 79.08 C-34.19 73.48 -34.19 73.48 -29.99 72.08 C-29.66 71.42 -29.66 71.42 -27.99 68.08 C-27.09 67.05 -26.18 66.02 -25.24 64.96 C-19.98 58.69 -15.81 51.77 -12.99 44.08 C-12.65 43.17 -12.31 42.25 -11.96 41.31 C-8.84 31.92 -8.48 22.94 -8.36 13.09 C-7.87 6.43 -7.39 0.15 0 0 Z M24.01 32.08 C23.13 35.64 23.13 35.64 22.44 39.96 C21.7 44.57 21.11 47.88 19.01 52.08 C19.01 53.07 19.01 54.06 19.01 55.08 C18.35 55.08 17.69 55.08 17.01 55.08 C16.19 57.16 15.38 59.25 14.57 61.33 C14.34 61.91 14.34 61.91 13.2 64.85 C12.01 68.08 12.01 68.08 11.01 72.08 C10.35 72.08 9.69 72.08 9.01 72.08 C7.32 74.74 5.64 77.4 3.98 80.07 C-1.92 89.08 -11.21 99.39 -21.99 102.08 C-21.99 102.74 -21.99 103.4 -21.99 104.08 C-23.11 104.37 -24.22 104.66 -25.37 104.96 C-28.99 106.08 -28.99 106.08 -30.99 108.08 C-33.74 109 -36.52 109.85 -39.31 110.64 C-40.06 110.86 -40.06 110.86 -43.86 111.96 C-52.85 114.4 -61.3 114.27 -70.56 114.27 C-72.15 114.28 -73.74 114.29 -75.39 114.31 C-90.63 114.33 -102.75 112.28 -116.49 105.33 C-120.99 103.08 -120.99 103.08 -122.99 103.08 C-122.99 102.42 -122.99 101.76 -122.99 101.08 C-125.64 99.38 -128.31 97.72 -130.99 96.08 C-146.09 86.02 -157.23 68.4 -161.99 51.08 C-162.81 46.33 -163.56 41.57 -164.25 36.8 C-164.49 35.57 -164.74 34.35 -164.99 33.08 C-171.31 29.92 -180.06 30.97 -186.93 30.98 C-187.44 30.99 -187.44 30.99 -189.99 30.99 C-193.18 30.99 -196.37 31.01 -199.56 31.02 C-201.73 31.02 -203.91 31.03 -206.08 31.03 C-211.38 31.04 -216.69 31.06 -221.99 31.08 C-222.03 33.77 -222.05 36.47 -222.07 39.16 C-222.09 40.66 -222.11 42.16 -222.12 43.7 C-221.89 51.71 -220.15 58.16 -215.99 65.08 C-214.63 68.4 -213.3 71.74 -211.99 75.08 C-211.66 75.74 -211.33 76.4 -210.99 77.08 C-210.33 77.08 -209.67 77.08 -208.99 77.08 C-208.66 78.73 -208.33 80.38 -207.99 82.08 C-207.33 82.08 -206.67 82.08 -205.99 82.08 C-205.33 83.73 -204.67 85.38 -203.99 87.08 C-202.58 89.03 -201.09 90.92 -199.56 92.77 C-199.16 93.25 -199.16 93.25 -197.18 95.66 C-194.99 98.08 -194.99 98.08 -191.99 100.08 C-191 101.73 -190.01 103.38 -188.99 105.08 C-188.33 105.08 -187.67 105.08 -186.99 105.08 C-187.06 105.58 -187.06 105.58 -187.39 108.08 C-187.57 109.4 -187.75 110.72 -187.93 112.08 C-188.1 113.38 -188.28 114.68 -188.46 116.02 C-188.63 117.36 -188.81 118.7 -188.99 120.08 C-189.17 121.29 -189.36 122.5 -189.54 123.74 C-191.49 142.53 -191.27 162.44 -183.99 180.08 C-182.73 183.91 -181.5 187.75 -180.27 191.59 C-178.99 195.08 -178.99 195.08 -175.99 200.08 C-174.25 203.35 -172.53 206.64 -170.81 209.93 C-169.09 212.92 -167.16 215.41 -164.99 218.08 C-164.66 218.74 -164.66 218.74 -162.99 222.08 C-162.33 222.08 -161.67 222.08 -160.99 222.08 C-160.66 222.74 -160.66 222.74 -158.99 226.08 C-158 227.07 -157.01 228.06 -155.99 229.08 C-155.33 230.4 -154.67 231.72 -153.99 233.08 C-153.33 233.41 -153.33 233.41 -149.99 235.08 C-149 236.73 -148.01 238.38 -146.99 240.08 C-146 240.41 -145.01 240.74 -143.99 241.08 C-143.33 242.07 -142.67 243.06 -141.99 244.08 C-140.34 244.74 -138.69 245.4 -136.99 246.08 C-136 247.07 -135.01 248.06 -133.99 249.08 C-131.66 250.09 -129.33 251.09 -126.99 252.08 C-126.66 252.74 -126.33 253.4 -125.99 254.08 C-115.35 257.26 -106.49 258.75 -95.99 254.08 C-95.99 253.42 -95.99 252.76 -95.99 252.08 C-95 251.75 -94.01 251.42 -92.99 251.08 C-86.85 242.01 -86.8 235.76 -86.57 224.94 C-85.98 220.01 -85.18 217.8 -81.99 214.08 C-77.08 211.63 -70.16 212.79 -64.99 214.08 C-63.93 216.71 -63.93 216.71 -62.99 220.08 C-62.49 221.15 -61.98 222.22 -61.46 223.32 C-57.43 233.66 -59.96 245.76 -62.99 256.08 C-63.98 257.4 -64.97 258.72 -65.99 260.08 C-66.73 262.4 -67.4 264.73 -67.99 267.08 C-68.65 267.08 -69.31 267.08 -69.99 267.08 C-70.69 267.8 -71.4 268.53 -72.12 269.27 C-74.99 272.08 -74.99 272.08 -79.24 274.46 C-82.99 277.08 -82.99 277.08 -84.43 280.39 C-83.78 285.88 -80.87 288.34 -76.99 292.08 C-76.33 292.08 -75.67 292.08 -74.99 292.08 C-74.99 293.07 -74.99 294.06 -74.99 295.08 C-73.67 295.41 -72.35 295.74 -70.99 296.08 C-70.99 296.74 -70.99 297.4 -70.99 298.08 C-68.88 299.81 -68.88 299.81 -66.12 301.71 C-65.21 302.34 -64.31 302.97 -63.38 303.62 C-60.99 305.08 -60.99 305.08 -58.99 305.08 C-58.66 306.07 -58.33 307.06 -57.99 308.08 C-56.03 309.16 -54.02 310.14 -51.99 311.08 C-51.37 311.44 -51.37 311.44 -48.24 313.27 C-44.99 315.08 -44.99 315.08 -42.99 315.08 C-42.99 315.74 -42.99 316.4 -42.99 317.08 C-41.67 317.08 -40.35 317.08 -38.99 317.08 C-38.66 318.07 -38.33 319.06 -37.99 320.08 C-30.11 324.3 -21.83 327.61 -12.99 329.08 C-11.55 329.42 -10.1 329.76 -8.61 330.11 C-1.97 331.26 4.35 331.38 11.07 331.33 C12.28 331.34 13.5 331.35 14.75 331.36 C21.46 331.34 27.48 330.85 34.01 329.08 C34.01 328.42 34.01 327.76 34.01 327.08 C34.69 327.05 34.69 327.05 38.13 326.89 C43.47 326.01 45.18 324.73 49.01 321.08 C50.33 320.42 51.65 319.76 53.01 319.08 C66.77 305.06 69.2 290.4 69.07 271.45 C69.07 270.14 69.06 268.83 69.06 267.48 C69.04 261.91 69.01 256.33 68.99 250.76 C68.97 246.68 68.96 242.6 68.94 238.51 C68.94 237.89 68.94 237.89 68.92 234.76 C68.87 216.78 69.97 200.96 81.01 186.08 C81.5 185.26 81.5 185.26 84.01 181.08 C85.33 179.76 86.65 178.44 88.01 177.08 C88.01 176.42 88.01 175.76 88.01 175.08 C89 175.08 89.99 175.08 91.01 175.08 C90.76 172.21 90.76 172.21 90.01 169.08 C88.69 168.42 87.37 167.76 86.01 167.08 C83.88 164.14 83.88 164.14 82.01 161.08 C81.35 160.09 80.69 159.1 80.01 158.08 C79.35 158.08 78.69 158.08 78.01 158.08 C77.59 156.78 77.18 155.48 76.76 154.14 C75.01 149.08 75.01 149.08 73 145.01 C70.73 139.39 69.88 134.08 69.3 128.1 C69.18 126.9 69.06 125.71 68.93 124.47 C67.31 106.64 67.43 88.72 67.32 70.83 C67.29 67.15 67.25 63.48 67.22 59.8 C67.13 50.89 67.06 41.99 67.01 33.08 C65.12 32.77 63.24 32.45 61.3 32.12 C60.24 31.94 59.18 31.76 58.08 31.58 C31.28 27.24 31.28 27.24 24.01 32.08 Z " fill="#7152C9" transform="translate(402.99256896972656,503.91770935058594)"/>
<path d="M0 0 C1.5 4.5 1.12 8.79 1.11 13.53 C1.11 14.61 1.11 15.7 1.11 16.81 C1.11 20.4 1.11 23.99 1.1 27.57 C1.1 30.06 1.09 32.54 1.09 35.03 C1.09 41.57 1.08 48.12 1.07 54.66 C1.06 61.34 1.05 68.01 1.05 74.69 C1.04 87.79 1.02 100.9 1 114 C0.11 114.03 0.11 114.03 -4.39 114.18 C-6.75 114.26 -9.11 114.34 -11.47 114.43 C-12.64 114.46 -13.81 114.5 -15.01 114.54 C-35.15 115.27 -49.11 120.28 -63.31 135.38 C-66.9 139.88 -68.92 143.66 -71 149 C-71.36 149.78 -71.36 149.78 -73.19 153.75 C-76.53 161.59 -76.25 169.13 -76.31 177.5 C-76.33 178.15 -76.33 178.15 -76.4 181.44 C-76.52 199.45 -70.11 212.86 -58 226 C-57.01 226.66 -56.02 227.32 -55 228 C-55 228.66 -55 229.32 -55 230 C-53.35 230.66 -51.7 231.32 -50 232 C-48.35 232.99 -46.7 233.98 -45 235 C-45 235.66 -45 236.32 -45 237 C-43.35 237.33 -41.7 237.66 -40 238 C-38.37 238.5 -36.74 239.01 -35.07 239.52 C-28.38 241.37 -21.84 241.52 -14.94 241.62 C-2.21 241.89 -2.21 241.89 0 243 C5.75 260.24 2.15 284.14 2.13 302.1 C2.12 307.58 2.13 313.06 2.14 318.53 C2.14 322.04 2.13 325.56 2.13 329.07 C2.13 330.69 2.14 332.31 2.14 333.98 C2.09 357.91 2.09 357.91 0 360 C-3.43 360.08 -6.86 360.1 -10.3 360.08 C-11.38 360.08 -12.46 360.08 -13.58 360.07 C-15.94 360.07 -18.3 360.06 -20.67 360.04 C-24.41 360.03 -28.16 360.02 -31.9 360.01 C-42.56 359.98 -53.22 359.95 -63.87 359.9 C-70.38 359.88 -76.89 359.86 -83.4 359.85 C-85.88 359.84 -88.36 359.83 -90.83 359.82 C-94.32 359.8 -97.8 359.79 -101.28 359.79 C-103.26 359.78 -105.24 359.77 -107.27 359.77 C-115.26 360.09 -122.52 361.01 -130 364 C-130.99 364 -131.98 364 -133 364 C-133.33 364.99 -133.66 365.98 -134 367 C-136.66 369.01 -139.33 371.01 -142 373 C-148.78 380.49 -148.87 388.7 -149.77 398.34 C-150.39 404.37 -150.97 409.62 -154 415 C-159.11 419.04 -162.95 420.16 -169.38 420.25 C-170.5 420.28 -171.62 420.3 -172.77 420.33 C-176 420 -176 420 -181 417 C-181.66 415.68 -182.32 414.36 -183 413 C-183.99 412.67 -184.98 412.34 -186 412 C-186.09 411.16 -186.19 410.32 -186.28 409.45 C-189.94 378.67 -189.94 378.67 -202 369 C-202.88 368.27 -203.75 367.55 -204.65 366.8 C-214.02 359.61 -226.81 360.86 -238.07 360.81 C-239.21 360.8 -240.35 360.79 -241.52 360.79 C-243.97 360.77 -246.43 360.75 -248.88 360.74 C-252.75 360.72 -256.62 360.69 -260.5 360.66 C-270.11 360.59 -279.72 360.53 -289.33 360.47 C-297.47 360.42 -305.62 360.37 -313.77 360.31 C-317.6 360.28 -321.42 360.26 -325.24 360.24 C-327.57 360.22 -329.9 360.21 -332.22 360.19 C-333.29 360.19 -334.36 360.18 -335.46 360.18 C-342.77 360.11 -342.77 360.11 -345 359 C-353.86 342.77 -346.94 317.15 -342.3 300.3 C-340.81 295.36 -339.06 290.73 -337 286 C-335.58 282.23 -334.17 278.46 -332.77 274.68 C-332.33 273.51 -331.89 272.33 -331.44 271.12 C-331.02 270.01 -330.61 268.9 -330.18 267.76 C-329 265 -329 265 -327 263 C-326.77 262.46 -326.77 262.46 -325.62 259.75 C-324.05 256.12 -322.21 253.28 -320 250 C-317.95 246.36 -315.98 242.68 -314 239 C-313.34 239 -312.68 239 -312 239 C-312 238.01 -312 237.02 -312 236 C-311.34 235.67 -310.68 235.34 -310 235 C-308.95 233.02 -307.95 231.03 -307 229 C-306.34 229 -305.68 229 -305 229 C-303.43 221.84 -302.57 214.88 -302.06 207.56 C-300.43 186.45 -296.47 167.45 -288 148 C-287.34 146.35 -286.68 144.7 -286 143 C-285.34 143 -284.68 143 -284 143 C-283.67 141.68 -283.34 140.36 -283 139 C-282.01 137.35 -281.02 135.7 -280 134 C-279.34 132.35 -278.68 130.7 -278 129 C-276.04 126.64 -274.03 124.31 -272 122 C-268.71 117.75 -265.77 113.61 -263 109 C-262.34 109 -261.68 109 -261 109 C-261 108.34 -261 107.68 -261 107 C-260.34 107 -259.68 107 -259 107 C-258.67 106.34 -258.67 106.34 -257 103 C-254.51 101.22 -252.01 99.44 -249.46 97.73 C-247 96 -247 96 -244.31 93.31 C-241.49 90.49 -238.47 88.99 -235 87 C-233.16 85.55 -231.33 84.09 -229.5 82.62 C-222.83 77.54 -215.83 74.85 -208 72 C-205.72 71.05 -203.45 70.1 -201.19 69.12 C-196 67 -196 67 -194 67 C-194 66.34 -194 65.68 -194 65 C-193.01 65 -192.02 65 -191 65 C-191 64.01 -191 63.02 -191 62 C-189.68 61.34 -188.36 60.68 -187 60 C-185.39 58.03 -183.86 56 -182.38 53.94 C-175.19 44.38 -166.84 37.64 -157 31 C-156.18 30.4 -155.35 29.8 -154.5 29.19 C-140.45 19 -140.45 19 -135 19 C-135 18.34 -135 17.68 -135 17 C-133.54 16.48 -132.07 15.97 -130.56 15.44 C-123.96 13.06 -117.55 10.28 -111.11 7.49 C-107 6 -103.34 5.37 -99 5 C-99 4.34 -99 3.68 -99 3 C-70.57 -5.31 -28.07 -13.5 0 0 Z M-75 29 C-75 29.66 -75 30.32 -75 31 C-75.98 31.09 -76.96 31.17 -77.97 31.26 C-91.27 32.65 -102.92 36.28 -115 42 C-115 42.66 -115 43.32 -115 44 C-115.8 44.06 -116.61 44.12 -117.44 44.19 C-125.41 46.01 -131.61 51.15 -138 56 C-138.99 56.33 -139.98 56.66 -141 57 C-141 57.66 -141 58.32 -141 59 C-142.32 59.66 -143.64 60.32 -145 61 C-154.78 69.05 -164.83 77.34 -168 90 C-168.82 90.16 -168.82 90.16 -173 91 C-173 91.66 -173 92.32 -173 93 C-177.09 94.63 -180.48 95.6 -184.75 96.44 C-200.44 99.73 -213.64 106.64 -225 118 C-225.66 118.33 -225.66 118.33 -229 120 C-232.57 123.3 -235.64 126.9 -238.69 130.69 C-242.82 135.82 -242.82 135.82 -245 138 C-245 138.99 -245 139.98 -245 141 C-245.66 141 -246.32 141 -247 141 C-247 142.32 -247 143.64 -247 145 C-247.66 145 -248.32 145 -249 145 C-249.16 145.66 -249.16 145.66 -250 149 C-250.99 149.33 -251.98 149.66 -253 150 C-255.37 153.81 -257.13 157.93 -259 162 C-259.44 162.9 -259.87 163.8 -260.32 164.73 C-267.67 180.82 -269.85 197.47 -269 215 C-264.62 216.71 -260.62 218.08 -256 219 C-251.34 219.93 -247.39 221.22 -243 223 C-232.07 227.4 -232.07 227.4 -227 229 C-227 229.66 -227 230.32 -227 231 C-226.26 231.51 -226.26 231.51 -222.5 234.06 C-214.24 239.72 -208.19 245.89 -206 256 C-205.79 259.71 -205.86 263.28 -206 267 C-213.53 270.12 -220.93 271.41 -229 270 C-231.88 266.94 -231.88 266.94 -234 263 C-239.84 257.53 -245.3 253.37 -252.94 250.88 C-253.94 250.54 -254.94 250.21 -255.96 249.87 C-263.79 247.63 -271.92 247.05 -280 248 C-284.44 250.81 -284.44 250.81 -287 254 C-287 254.99 -287 255.98 -287 257 C-287.66 257 -288.32 257 -289 257 C-290.01 258.77 -291.01 260.54 -292 262.31 C-292.56 263.3 -293.11 264.28 -293.69 265.3 C-295 268 -295 268 -295 271 C-295.66 271 -296.32 271 -297 271 C-299 275 -299 275 -299 279 C-299.66 279 -300.32 279 -301 279 C-305.56 288.18 -308.92 297.4 -311.44 307.31 C-311.7 308.3 -311.95 309.29 -312.22 310.31 C-313.85 317 -314.09 323.14 -314 330 C-312.71 330.01 -311.43 330.01 -310.1 330.02 C-297.96 330.08 -285.82 330.15 -273.68 330.24 C-267.44 330.28 -261.2 330.32 -254.96 330.35 C-248.94 330.37 -242.91 330.41 -236.89 330.46 C-234.59 330.48 -232.3 330.49 -230 330.5 C-226.78 330.51 -223.56 330.54 -220.34 330.57 C-218.51 330.58 -216.68 330.59 -214.79 330.6 C-210.13 330.99 -207.14 331.91 -203 334 C-202.03 334.31 -201.06 334.62 -200.06 334.94 C-193.97 337.05 -189.58 339.42 -185 344 C-182.01 346.35 -179.01 348.68 -176 351 C-174.93 351.97 -173.86 352.94 -172.75 353.94 C-170 356 -170 356 -165 356 C-162 351 -162 351 -162 349 C-161.34 349 -160.68 349 -160 349 C-159.67 347.68 -159.34 346.36 -159 345 C-157.68 344.67 -156.36 344.34 -155 344 C-153.68 342.68 -152.36 341.36 -151 340 C-135.77 330.12 -117.73 328.82 -100 328.88 C-98.79 328.87 -97.57 328.87 -96.32 328.86 C-89.96 328.87 -83.65 329.05 -77.3 329.5 C-67.93 330.14 -58.58 330.15 -49.19 330.12 C-47.47 330.13 -45.76 330.13 -43.99 330.14 C-42.36 330.14 -40.73 330.13 -39.04 330.13 C-38.31 330.13 -38.31 330.13 -34.57 330.13 C-31 330 -31 330 -28 329 C-27.83 321.54 -27.7 314.09 -27.62 306.63 C-27.58 304.09 -27.53 301.56 -27.47 299.02 C-27.39 295.37 -27.35 291.73 -27.32 288.08 C-27.28 286.95 -27.24 285.82 -27.21 284.65 C-27.21 281.43 -27.21 281.43 -28 276 C-33.01 271.13 -38.33 269.8 -45 268 C-47.17 267.28 -49.34 266.55 -51.5 265.81 C-57 264 -57 264 -59 264 C-59 263.34 -59 262.68 -59 262 C-59.97 261.55 -60.94 261.09 -61.94 260.62 C-65 259 -65 259 -66 257 C-66.99 256.63 -67.98 256.26 -69 255.88 C-77.33 251.97 -83.14 244.91 -89 238 C-89.99 237.01 -90.98 236.02 -92 235 C-92.66 233.68 -93.32 232.36 -94 231 C-94.66 231 -95.32 231 -96 231 C-97.33 227 -98.67 223 -100 219 C-100.66 219 -101.32 219 -102 219 C-102.33 217.35 -102.66 215.7 -103 214 C-103.33 213.34 -103.66 212.68 -104 212 C-104.37 209.88 -104.69 207.75 -105 205.62 C-105.52 202 -106.11 198.56 -107 195 C-107.12 191.26 -107.19 187.55 -107.19 183.81 C-107.19 182.74 -107.19 181.67 -107.19 180.56 C-107.12 171.6 -106.36 162.86 -105 154 C-104.75 152.1 -104.5 150.2 -104.25 148.25 C-102.68 141.67 -100.03 136.01 -97 130 C-96.52 128.99 -96.04 127.99 -95.54 126.95 C-91.33 118.88 -85.47 112.34 -79 106 C-79 105.34 -79 104.68 -79 104 C-78.18 103.67 -78.18 103.67 -74 102 C-72.72 101.01 -71.44 100.02 -70.12 99 C-66.26 96.19 -63.61 94.96 -59 94 C-59 93.34 -59 92.68 -59 92 C-58.01 92 -57.02 92 -56 92 C-56 91.34 -56 90.68 -56 90 C-54.85 89.87 -53.71 89.75 -52.52 89.62 C-48.12 89.02 -43.93 88.13 -39.62 87.06 C-38.24 86.72 -36.85 86.38 -35.41 86.04 C-32 85 -32 85 -30 83 C-29.79 79.14 -29.7 75.36 -29.7 71.5 C-29.69 70.35 -29.69 69.21 -29.69 68.03 C-29.68 65.6 -29.68 63.17 -29.68 60.74 C-29.69 57.02 -29.66 53.29 -29.64 49.56 C-29.64 47.21 -29.64 44.85 -29.64 42.5 C-29.63 41.94 -29.63 41.94 -29.61 39.1 C-29.63 36.4 -29.8 33.7 -30 31 C-34.23 28.18 -37.42 28.77 -42.48 28.8 C-44.37 28.81 -46.25 28.82 -48.19 28.82 C-50.17 28.84 -52.15 28.86 -54.19 28.88 C-56.2 28.89 -58.21 28.89 -60.22 28.9 C-65.14 28.93 -70.07 28.96 -75 29 Z " fill="#E15A97" transform="translate(501,117)"/>
<path d="M0 0 C3.25 0.04 6.5 0.04 9.75 0.04 C19.11 0.08 27.89 0.35 37.06 2.41 C38.71 2.72 40.36 3.03 42.06 3.35 C47.19 4.44 52.06 5.84 57.06 7.41 C58.33 7.8 59.59 8.18 60.9 8.58 C68.44 10.88 75.79 13.34 83.06 16.41 C83.06 17.07 83.06 17.73 83.06 18.41 C83.95 18.54 84.83 18.66 85.75 18.79 C89.06 19.41 89.06 19.41 94.06 21.41 C94.06 22.07 94.06 22.73 94.06 23.41 C95.71 23.74 97.36 24.07 99.06 24.41 C101.74 25.94 101.74 25.94 104.5 27.79 C107.3 29.66 109.98 31.37 113.01 32.84 C126.58 39.83 137.95 51.8 147.37 63.54 C153.87 70.37 161.19 73.67 170 76.44 C192.76 83.7 215.55 99.34 230.06 118.41 C230.06 119.07 230.06 119.73 230.06 120.41 C231.05 120.74 232.04 121.07 233.06 121.41 C237.23 126.47 240.21 131.54 243.06 137.41 C244.18 139.29 245.3 141.17 246.44 143.04 C259.13 164.82 262.23 187.84 262.4 212.64 C262.7 227.58 268.89 237.99 278 249.47 C281.06 253.41 281.06 253.41 281.06 255.41 C281.72 255.41 282.38 255.41 283.06 255.41 C286.06 260.41 286.06 260.41 287.62 263.66 C289.06 266.41 289.06 266.41 291.06 267.41 C292.73 270.58 294.29 273.74 295.81 276.97 C296.03 277.45 296.03 277.45 297.17 279.85 C300.92 287.89 304.09 296.06 307.06 304.41 C307.76 306.12 308.46 307.84 309.19 309.6 C314.42 324.31 319.33 345.79 313.78 360.88 C312.06 363.41 312.06 363.41 308.06 365.41 C304.2 365.61 300.41 365.68 296.55 365.67 C295.96 365.67 295.96 365.67 292.98 365.68 C289.09 365.69 285.2 365.68 281.31 365.68 C278.61 365.68 275.91 365.68 273.21 365.68 C267.55 365.69 261.89 365.68 256.23 365.67 C248.96 365.66 241.7 365.67 234.43 365.68 C228.85 365.69 223.28 365.68 217.7 365.68 C215.02 365.68 212.34 365.68 209.66 365.68 C205.92 365.69 202.19 365.68 198.45 365.67 C197.33 365.67 196.22 365.68 195.07 365.68 C187.4 365.64 187.4 365.64 184.06 363.41 C182.83 359.71 182.88 356.57 182.81 352.67 C182.78 351.11 182.75 349.54 182.72 347.94 C182.65 344.66 182.6 341.39 182.54 338.12 C182.05 315.39 182.05 315.39 177.56 306.41 C176.06 303.41 174.56 300.41 173.06 297.41 C172.07 296.42 171.08 295.43 170.06 294.41 C168.97 292.95 167.87 291.48 166.75 289.97 C163.58 286.05 161.26 283.97 157.06 281.41 C157.06 280.75 157.06 280.09 157.06 279.41 C155.76 279 154.46 278.59 153.12 278.16 C148.29 276.49 143.72 274.5 139.06 272.41 C133.58 271.04 128.18 271.15 122.56 271.1 C122 271.08 122 271.08 119.16 271.01 C108.81 270.93 99.73 273.09 91 278.97 C90.12 279.55 89.24 280.13 88.34 280.73 C86.06 282.41 86.06 282.41 83.06 285.41 C82.4 285.41 81.74 285.41 81.06 285.41 C80.73 286.4 80.4 287.39 80.06 288.41 C79.26 289.2 78.45 289.98 77.62 290.79 C75.06 293.41 75.06 293.41 73.06 298.41 C72.4 298.74 71.74 299.07 71.06 299.41 C69.67 303.06 68.33 306.72 67.06 310.41 C66.4 310.41 65.74 310.41 65.06 310.41 C65.06 312.06 65.06 313.71 65.06 315.41 C64.73 315.74 64.4 316.07 64.06 316.41 C63.19 321.94 62.94 327.33 62.92 332.93 C62.9 334.51 62.88 336.09 62.86 337.72 C62.83 341.03 62.81 344.34 62.81 347.65 C62.78 349.23 62.76 350.8 62.73 352.43 C62.73 353.15 62.73 353.15 62.7 356.78 C62.06 360.41 62.06 360.41 60.09 362.61 C55.91 365.1 52.81 364.89 47.96 364.87 C46.09 364.87 44.23 364.87 42.31 364.86 C40.29 364.84 38.26 364.82 36.23 364.8 C34.15 364.79 32.07 364.79 29.99 364.79 C24.53 364.77 19.07 364.73 13.61 364.69 C8.03 364.65 2.45 364.63 -3.12 364.61 C-14.06 364.56 -25 364.5 -35.94 364.41 C-35.95 362.78 -35.95 361.15 -35.96 359.47 C-36.01 344.08 -36.09 328.69 -36.17 313.3 C-36.22 305.39 -36.26 297.47 -36.29 289.56 C-36.31 281.92 -36.35 274.29 -36.4 266.65 C-36.42 263.74 -36.43 260.83 -36.44 257.91 C-36.45 253.83 -36.47 249.75 -36.51 245.66 C-36.51 244.47 -36.5 243.27 -36.5 242.03 C-36.61 232.67 -38.5 224.73 -42.94 216.41 C-43.43 215.19 -43.93 213.98 -44.44 212.72 C-46.5 208.17 -48.47 206.64 -52.94 204.41 C-52.94 203.75 -52.94 203.09 -52.94 202.41 C-62.64 200.05 -72.03 198.01 -82.02 197.59 C-84.94 197.41 -84.94 197.41 -89.94 196.41 C-90.27 195.75 -90.6 195.09 -90.94 194.41 C-91.93 194.08 -92.92 193.75 -93.94 193.41 C-94.02 190 -94.08 186.58 -94.13 183.16 C-94.16 181.26 -94.2 179.36 -94.23 177.4 C-93.94 172.41 -93.94 172.41 -90.94 168.41 C-84.67 166.68 -78.4 166.14 -71.94 165.47 C-65.22 164.77 -59.3 163.66 -52.94 161.41 C-51.95 161.08 -50.96 160.75 -49.94 160.41 C-49.94 159.75 -49.94 159.09 -49.94 158.41 C-48.87 157.5 -47.79 156.6 -46.69 155.66 C-40.52 150.32 -38.13 145.24 -35.94 137.41 C-35.69 133.37 -35.58 129.5 -35.63 125.47 C-35.63 124.31 -35.64 123.15 -35.64 121.95 C-35.65 118.13 -35.68 114.31 -35.72 110.49 C-35.73 107.81 -35.74 105.14 -35.74 102.47 C-35.77 95.45 -35.81 88.43 -35.85 81.4 C-35.92 70.17 -35.98 58.94 -36.01 47.71 C-36.03 43.81 -36.06 39.9 -36.09 35.99 C-36.1 33.57 -36.11 31.16 -36.12 28.74 C-36.13 27.66 -36.14 26.59 -36.15 25.48 C-36.17 18.22 -35.28 11.52 -33.94 4.41 C-22.67 -0.05 -11.93 -0.14 0 0 Z M-5.94 35.41 C-6.45 39.9 -6.45 39.9 -6.47 45.74 C-6.48 46.8 -6.49 47.86 -6.5 48.96 C-6.52 52.48 -6.52 56 -6.51 59.52 C-6.53 61.97 -6.54 64.41 -6.56 66.86 C-6.59 73.3 -6.61 79.75 -6.62 86.2 C-6.64 96.51 -6.7 106.82 -6.75 117.12 C-6.76 120.72 -6.77 124.32 -6.78 127.92 C-6.78 130.14 -6.79 132.35 -6.8 134.57 C-6.8 135.53 -6.8 135.53 -6.81 140.41 C-6.92 144.52 -7.24 148.37 -7.94 152.41 C-8.6 152.41 -9.26 152.41 -9.94 152.41 C-10.6 155.05 -11.26 157.69 -11.94 160.41 C-12.6 160.41 -13.26 160.41 -13.94 160.41 C-15.64 162.58 -17.33 164.75 -18.99 166.95 C-21.7 170.37 -24.85 173.33 -27.94 176.41 C-27.94 177.07 -27.94 177.73 -27.94 178.41 C-28.93 178.74 -29.92 179.07 -30.94 179.41 C-30.94 181.39 -30.94 183.37 -30.94 185.41 C-26.1 189.41 -26.1 189.41 -22.94 189.41 C-22.61 190.24 -22.61 190.24 -20.94 194.41 C-19.83 195.73 -18.71 197.05 -17.56 198.41 C-6.17 212.76 -6.5 235.44 -6.5 252.77 C-6.48 254.67 -6.47 256.57 -6.46 258.52 C-6.42 263.53 -6.4 268.54 -6.39 273.55 C-6.36 280.6 -6.33 287.65 -6.28 294.71 C-6.26 298.45 -6.25 302.19 -6.24 305.93 C-6.19 315.32 -5.66 324.18 -3.94 333.41 C-3.28 333.41 -2.62 333.41 -1.94 333.41 C-1.61 334.4 -1.28 335.39 -0.94 336.41 C4.33 336.3 9.6 336.17 14.87 336.04 C15.62 336.02 15.62 336.02 19.42 335.94 C20.86 335.9 22.29 335.87 23.77 335.83 C24.43 335.81 24.43 335.81 27.78 335.73 C31.06 335.41 31.06 335.41 34.06 333.41 C34.4 330.45 34.4 330.45 34.44 326.6 C35.32 306.48 41.68 285.76 55.06 270.41 C55.06 269.75 55.06 269.09 55.06 268.41 C56.05 268.08 57.04 267.75 58.06 267.41 C60.67 264.94 63.11 262.35 65.56 259.72 C68.06 257.41 68.06 257.41 73.06 255.41 C73.06 254.75 73.06 254.09 73.06 253.41 C74.71 252.75 76.36 252.09 78.06 251.41 C79.71 250.42 81.36 249.43 83.06 248.41 C85.81 247.61 88.58 246.88 91.37 246.22 C92.81 245.88 94.25 245.54 95.74 245.18 C96.83 244.93 97.93 244.67 99.06 244.41 C99.06 243.75 99.06 243.09 99.06 242.41 C104.6 242.32 110.14 242.27 115.69 242.22 C117.24 242.2 118.79 242.17 120.39 242.15 C138.47 242.03 153.03 246.28 169.06 254.41 C169.72 254.41 170.38 254.41 171.06 254.41 C171.06 255.07 171.06 255.73 171.06 256.41 C173.72 258.09 176.39 259.75 179.06 261.41 C179.72 262.4 180.38 263.39 181.06 264.41 C181.72 264.41 182.38 264.41 183.06 264.41 C183.06 265.07 183.06 265.73 183.06 266.41 C183.89 267.07 184.71 267.73 185.56 268.41 C192.1 274.02 197.05 280.81 201.06 288.41 C201.86 289.69 202.65 290.97 203.47 292.28 C206.57 298.41 207.94 304.22 209.31 310.91 C209.57 312.08 209.82 313.26 210.08 314.46 C211.17 319.55 212.06 324.45 212.55 329.63 C212.72 330.88 212.89 332.13 213.06 333.41 C216.59 335.76 218.01 335.66 222.18 335.64 C222.82 335.64 222.82 335.64 226.01 335.64 C227.37 335.63 228.73 335.62 230.14 335.61 C230.83 335.61 230.83 335.61 234.36 335.6 C238.82 335.59 243.29 335.56 247.75 335.54 C250.77 335.53 253.79 335.52 256.81 335.51 C264.23 335.49 271.64 335.45 279.06 335.41 C279.13 328.64 278.98 322.76 277.19 316.22 C276.84 314.93 276.49 313.64 276.13 312.31 C275.95 311.66 275.95 311.66 275.06 308.41 C274.39 305.75 273.72 303.08 273.06 300.41 C272.4 300.41 271.74 300.41 271.06 300.41 C270.73 298.1 270.4 295.79 270.06 293.41 C269.07 293.08 268.08 292.75 267.06 292.41 C266.98 291.4 266.9 290.39 266.81 289.35 C265.99 285.02 264.4 282.12 262.06 278.41 C261.4 278.41 260.74 278.41 260.06 278.41 C260.06 277.75 260.06 277.09 260.06 276.41 C259.4 276.41 258.74 276.41 258.06 276.41 C257.93 275.89 257.93 275.89 257.25 273.22 C256.06 269.41 256.06 269.41 253.06 264.41 C252.4 264.41 251.74 264.41 251.06 264.41 C250.4 263.09 249.74 261.77 249.06 260.41 C247.42 258.72 245.75 257.06 244.06 255.41 C243.46 254.63 242.86 253.84 242.25 253.04 C238.62 248.68 234.51 244.23 229.06 242.41 C229.03 240.35 229.01 238.29 229 236.22 C228.99 235.08 228.98 233.93 228.96 232.74 C229.06 229.41 229.06 229.41 230.06 224.41 C230.29 219.14 230.25 213.87 230.25 208.6 C230.26 207.16 230.27 205.73 230.29 204.25 C230.31 188.9 230.31 188.9 227.06 182.41 C226.94 181.03 226.81 179.65 226.69 178.22 C226.09 173.61 225.03 170.58 223.06 166.41 C222.05 163.75 221.05 161.08 220.06 158.41 C219.4 158.41 218.74 158.41 218.06 158.41 C217.81 157.36 217.57 156.31 217.31 155.22 C216.05 151.38 214.63 149.46 212.06 146.41 C211.4 144.76 210.74 143.11 210.06 141.41 C208.06 138.6 208.06 138.6 206.06 136.41 C205.4 136.41 204.74 136.41 204.06 136.41 C204.06 135.75 204.06 135.09 204.06 134.41 C203.4 134.41 202.74 134.41 202.06 134.41 C202.06 133.42 202.06 132.43 202.06 131.41 C201.07 130.42 200.08 129.43 199.06 128.41 C198.4 128.41 197.74 128.41 197.06 128.41 C196.73 127.42 196.4 126.43 196.06 125.41 C195.07 125.41 194.08 125.41 193.06 125.41 C192.73 124.42 192.4 123.43 192.06 122.41 C187.06 119.41 187.06 119.41 185.06 119.41 C185.06 118.75 185.06 118.09 185.06 117.41 C179.06 112.84 173.14 110.05 166.05 107.52 C163.06 106.41 163.06 106.41 159.56 104.54 C153.93 102.73 148.75 102.78 143.06 104.41 C138.13 108.16 135.22 113.14 132.06 118.41 C132.06 119.07 132.06 119.73 132.06 120.41 C131.4 120.41 130.74 120.41 130.06 120.41 C129.93 121.27 129.8 122.12 129.66 123 C129.48 124.11 129.31 125.21 129.12 126.35 C128.95 127.45 128.78 128.55 128.6 129.69 C128.06 132.41 128.06 132.41 127.06 133.41 C126.92 134.5 126.77 135.6 126.62 136.72 C126.06 140.41 126.06 140.41 124.06 144.41 C109.53 150.22 109.53 150.22 101.31 146.89 C100.24 146.4 99.16 145.91 98.06 145.41 C97.98 141.95 97.92 138.5 97.87 135.04 C97.84 133.11 97.8 131.18 97.77 129.2 C98.06 123.42 99.21 118.87 101.06 113.41 C101.39 111.76 101.72 110.11 102.06 108.41 C102.72 108.41 103.38 108.41 104.06 108.41 C104.87 107.01 105.67 105.61 106.5 104.16 C110.84 96.61 116.93 90.54 123.06 84.41 C123.19 80.79 123.19 80.79 123.06 77.41 C122.15 77.16 121.25 76.92 120.31 76.66 C117.06 75.41 117.06 75.41 113.06 71.41 C112.73 70.42 112.4 69.43 112.06 68.41 C109.43 66.95 106.79 65.49 104.12 64.09 C98.57 61.05 93.28 57.46 88.62 53.16 C84.48 50.33 79.91 49.58 75.06 48.41 C75.06 47.75 75.06 47.09 75.06 46.41 C72.42 46.08 69.78 45.75 67.06 45.41 C67.06 44.75 67.06 44.09 67.06 43.41 C58.54 39.79 50.65 37.56 41.49 36.19 C37.06 35.41 37.06 35.41 31.41 33.85 C24.6 32.11 18.06 31.97 11.06 32.04 C10.46 32.03 10.46 32.03 7.42 32 C-1.43 32.03 -1.43 32.03 -5.94 35.41 Z " fill="#4CADC3" transform="translate(566.939208984375,111.58837890625)"/>
<path d="M0 0 C0.66 0.16 0.66 0.16 4 1 C-1.22 8.31 -6.9 13.54 -14 19 C-15.11 19.87 -16.21 20.75 -17.35 21.65 C-26.01 28.43 -26.01 28.43 -30.73 31.13 C-34 33 -34 33 -36.5 35.62 C-39.62 38.59 -41.82 38.95 -46 40 C-49.29 41.25 -52.55 42.56 -55.82 43.88 C-58.89 44.96 -61.77 45.57 -65 46 C-65 46.66 -65 47.32 -65 48 C-66.15 48.16 -66.15 48.16 -72 49 C-72.33 49.99 -72.66 50.98 -73 52 C-74.26 53.07 -75.52 54.14 -76.81 55.25 C-80.75 58.78 -82.55 61.43 -85 66 C-87.12 68.37 -87.12 68.37 -90 71 C-90.72 71.67 -91.45 72.34 -92.19 73.03 C-123.84 102 -123.84 102 -135 102 C-135 102.66 -135 103.32 -135 104 C-140.78 106.44 -146.6 108.61 -152.56 110.56 C-153.76 110.96 -154.96 111.35 -156.19 111.75 C-169.62 115.23 -182.72 116.48 -196.56 116.69 C-197.36 116.7 -197.36 116.7 -201.39 116.79 C-205.26 116.87 -209.13 116.94 -213 117 C-213 116.34 -213 115.68 -213 115 C-215.78 114.31 -218.57 113.66 -221.38 113.06 C-227.59 111.63 -233.16 109.57 -239 107 C-239 106.34 -239 105.68 -239 105 C-240.65 104.67 -242.3 104.34 -244 104 C-247 101 -250 98 -253 95 C-247.42 96.18 -245.37 97.5 -242 102 C-236.84 104.06 -231.66 105.79 -226.38 107.5 C-222 109 -222 109 -218 111 C-215 111.36 -212 111.7 -209 112 C-208.67 112.33 -208.34 112.66 -208 113 C-189.74 114.14 -169.95 114.51 -153 107 C-151.58 106.65 -150.15 106.3 -148.69 105.94 C-145 105 -145 105 -143 103 C-139 100 -139 100 -134 99 C-130.03 96.91 -126.59 94.69 -123 92 C-122.17 91.67 -122.17 91.67 -118 90 C-117.26 89.26 -116.51 88.51 -115.75 87.75 C-111.2 83.2 -106.27 79.57 -100 78 C-99.67 77.34 -99.67 77.34 -98 74 C-96.08 71.28 -94.08 68.6 -92 66 C-91.34 66 -90.68 66 -90 66 C-89.67 65.01 -89.34 64.02 -89 63 C-88.01 62.67 -87.02 62.34 -86 62 C-84.31 59.35 -82.65 56.68 -81 54 C-80.01 53.34 -79.02 52.68 -78 52 C-77.34 50.68 -76.68 49.36 -76 48 C-72.38 47.25 -72.38 47.25 -69 47 C-69 46.34 -69 45.68 -69 45 C-67 44 -67 44 -61 44 C-61 43.34 -61 42.68 -61 42 C-60.46 41.87 -60.46 41.87 -57.75 41.19 C-54 40 -54 40 -50 37 C-49.34 37 -48.68 37 -48 37 C-48 36.34 -48 35.68 -48 35 C-46.43 34.57 -44.87 34.13 -43.25 33.69 C-38 32 -38 32 -34 29 C-33.34 29 -32.68 29 -32 29 C-32 28.34 -32 27.68 -32 27 C-29.55 25.51 -27.09 24.02 -24.61 22.58 C-18.51 18.88 -12.96 13.94 -9 8 C-7.68 8 -6.36 8 -5 8 C-5 6.68 -5 5.36 -5 4 C-2.75 1.69 -2.75 1.69 0 0 Z " fill="#D0956B" transform="translate(805,752)"/>
<path d="M0 0 C0.99 0.17 0.99 0.17 6 1 C7.5 5.5 7.12 9.79 7.11 14.53 C7.11 15.61 7.11 16.7 7.11 17.81 C7.11 21.4 7.11 24.99 7.1 28.57 C7.1 31.06 7.09 33.54 7.09 36.03 C7.09 42.57 7.08 49.12 7.07 55.66 C7.06 62.34 7.05 69.01 7.05 75.69 C7.04 88.79 7.02 101.9 7 115 C6.11 115.03 6.11 115.03 1.61 115.18 C-0.75 115.26 -3.11 115.34 -5.47 115.43 C-6.64 115.46 -7.81 115.5 -9.01 115.54 C-29.15 116.27 -43.11 121.28 -57.31 136.38 C-60.9 140.88 -62.92 144.66 -65 150 C-65.36 150.78 -65.36 150.78 -67.19 154.75 C-69.64 160.49 -70.15 165.55 -70.32 171.71 C-70.36 173.18 -70.4 174.65 -70.44 176.17 C-70.48 177.7 -70.52 179.23 -70.56 180.81 C-70.61 182.36 -70.65 183.92 -70.69 185.51 C-70.8 189.34 -70.9 193.17 -71 197 C-71.66 197 -72.32 197 -73 197 C-73.09 191.63 -73.14 186.25 -73.19 180.88 C-73.21 179.37 -73.24 177.87 -73.26 176.32 C-73.35 163.48 -72.77 151.66 -65 141 C-64.01 139.37 -63.02 137.74 -62 136.06 C-59 132 -59 132 -54 131 C-53.67 129.68 -53.34 128.36 -53 127 C-52.01 127 -51.02 127 -50 127 C-50 126.34 -50 125.68 -50 125 C-49.5 124.84 -49.5 124.84 -47 124 C-46.67 123.34 -46.34 122.68 -46 122 C-33.72 115.45 -24.41 113.83 -10.56 113.94 C-9.45 113.94 -8.34 113.95 -7.19 113.95 C-4.46 113.96 -1.73 113.98 1 114 C1 113.34 1 112.68 1 112 C1.66 112 2.32 112 3 112 C3.01 111.11 3.01 111.11 3.08 106.62 C3.17 100.04 3.27 93.47 3.37 86.9 C3.42 84.05 3.46 81.21 3.5 78.36 C3.55 74.27 3.62 70.19 3.68 66.1 C3.7 64.82 3.72 63.54 3.73 62.22 C3.89 53.23 3.89 53.23 5 51 C5.1 48.31 5.13 45.61 5.13 42.92 C5.13 41.29 5.14 39.65 5.14 37.96 C5.13 36.24 5.13 34.52 5.12 32.75 C5.13 31.04 5.13 29.34 5.14 27.58 C5.14 25.94 5.13 24.3 5.13 22.61 C5.13 21.86 5.13 21.86 5.13 18.05 C5 14 5 14 4.43 10.71 C4 8 4 8 5 4 C3.68 3.34 2.36 2.68 1 2 C0.84 1.67 0.84 1.67 0 0 Z " fill="#C86E9C" transform="translate(495,116)"/>
<path d="M0 0 C5.75 17.24 2.15 41.14 2.13 59.1 C2.12 64.58 2.13 70.06 2.14 75.53 C2.14 79.04 2.13 82.56 2.13 86.07 C2.13 87.69 2.14 89.31 2.14 90.98 C2.09 114.91 2.09 114.91 0 117 C-2.91 117.1 -5.82 117.13 -8.73 117.13 C-10.63 117.13 -12.52 117.14 -14.47 117.14 C-16.56 117.13 -18.66 117.13 -20.75 117.12 C-21.8 117.12 -22.85 117.12 -23.93 117.12 C-49.62 117.1 -75.31 116.57 -101 116 C-101 115.67 -101 115.34 -101 115 C-68.66 114.32 -36.35 113.83 -4 114 C-0.31 106.63 -0.85 99.14 -0.87 91.04 C-0.87 90.4 -0.87 90.4 -0.86 87.2 C-0.86 84.52 -0.87 81.84 -0.87 79.16 C-0.87 75.11 -0.87 71.05 -0.86 67 C-0.86 44.35 -0.86 44.35 -1.78 33.11 C-2.16 27.68 -2.07 22.25 -2 16.81 C-1.87 5.53 -1.87 5.53 -3 1 C-4.42 1.17 -5.85 1.33 -7.31 1.5 C-12.94 1.99 -18.36 2.07 -24 2 C-24 1.34 -24 0.68 -24 0 C-20.94 -0.2 -17.88 -0.38 -14.81 -0.56 C-13.11 -0.67 -11.4 -0.77 -9.64 -0.88 C-5 -1 -5 -1 0 0 Z " fill="#C3749C" transform="translate(501,360)"/>
<path d="M0 0 C-4 4 -4 4 -8 6 C-8.99 6 -9.98 6 -11 6 C-11 6.66 -11 7.32 -11 8 C-15.96 10.51 -20.84 12.93 -26 15 C-26.66 16.32 -27.32 17.64 -28 19 C-29.32 19.33 -30.64 19.66 -32 20 C-34.02 22.32 -36.02 24.65 -38 27 C-39.65 27.99 -41.3 28.98 -43 30 C-43.99 30.99 -44.98 31.98 -46 33 C-46.99 33.99 -47.98 34.98 -49 36 C-49.99 37.65 -50.98 39.3 -52 41 C-52.99 41.66 -53.98 42.32 -55 43 C-55.66 44.65 -56.32 46.3 -57 48 C-57.98 50.01 -58.98 52.01 -60 54 C-60.66 54 -61.32 54 -62 54 C-62.66 55.32 -63.32 56.64 -64 58 C-64.99 59.26 -65.98 60.52 -67 61.81 C-69.85 65.79 -70.88 68.34 -72 73 C-73 75 -74 77 -75 79 C-75.52 80.59 -76.03 82.18 -76.56 83.81 C-78 88 -78 88 -80 89 C-82.1 94.72 -83.19 100.02 -83.56 106.06 C-83.71 108.02 -83.85 109.98 -84 112 C-84.33 112.16 -84.33 112.16 -86 113 C-86.6 115.62 -86.6 115.62 -87.06 119 C-87.14 119.59 -87.14 119.59 -87.56 122.58 C-87.7 123.71 -87.85 124.84 -88 126 C-88.21 127.55 -88.41 129.09 -88.62 130.69 C-89 135 -89 135 -88.88 140.31 C-89 145 -89 145 -92 149 C-91.43 122.33 -87.69 97.56 -77 73 C-76.34 71.35 -75.68 69.7 -75 68 C-74.34 68 -73.68 68 -73 68 C-72.67 66.68 -72.34 65.36 -72 64 C-71.01 62.35 -70.02 60.7 -69 59 C-68.34 57.35 -67.68 55.7 -67 54 C-65.04 51.64 -63.03 49.31 -61 47 C-57.71 42.75 -54.77 38.61 -52 34 C-51.34 34 -50.68 34 -50 34 C-50 33.34 -50 32.68 -50 32 C-49.34 32 -48.68 32 -48 32 C-47.34 30.68 -46.68 29.36 -46 28 C-43.51 26.22 -41.01 24.44 -38.46 22.73 C-36 21 -36 21 -33.31 18.31 C-30.49 15.49 -27.47 13.99 -24 12 C-22.05 10.51 -20.12 9.01 -18.19 7.5 C-5.04 -2.52 -5.04 -2.52 0 0 Z " fill="#C6729B" transform="translate(290,192)"/>
<path d="M0 0 C0.33 0 0.66 0 1 0 C1.99 6.63 2.18 13.18 2.19 19.88 C2.2 20.92 2.21 21.96 2.22 23.04 C2.23 25.69 2.12 28.35 2 31 C1.34 31.66 0.68 32.32 0 33 C-0.33 34.65 -0.66 36.3 -1 38 C-3.63 42.67 -6.66 45.86 -11 49 C-11.99 49 -12.98 49 -14 49 C-14 49.66 -14 50.32 -14 51 C-15.26 51.29 -16.52 51.58 -17.81 51.88 C-22 53 -22 53 -25 55 C-28 55.38 -28 55.38 -31.44 55.56 C-35.19 55.77 -38.34 56.09 -42 57 C-45.85 57.1 -49.69 57.14 -53.54 57.13 C-54.12 57.13 -54.12 57.13 -57.05 57.14 C-59.51 57.14 -61.97 57.13 -64.43 57.13 C-68.1 57.13 -71.77 57.13 -75.45 57.14 C-87.3 57.14 -99.14 57.01 -110.99 56.55 C-112.03 56.52 -113.07 56.48 -114.14 56.44 C-118.56 56.25 -122.65 55.87 -127 55 C-127 54.67 -127 54.34 -127 54 C-126.48 54 -126.48 54 -123.87 53.98 C-114.07 53.9 -104.27 53.81 -94.48 53.71 C-89.44 53.66 -84.41 53.62 -79.37 53.58 C-73.57 53.53 -67.76 53.47 -61.96 53.41 C-60.17 53.4 -58.39 53.39 -56.55 53.38 C-46.86 53.27 -37.54 52.67 -28 51 C-26.18 50.71 -24.37 50.42 -22.5 50.12 C-18.13 49.03 -15.56 47.67 -12 45 C-11.34 45 -10.68 45 -10 45 C-9.67 44.01 -9.34 43.02 -9 42 C-8.34 42 -7.68 42 -7 42 C-3.84 35.69 -1.65 30.65 -1.27 23.54 C-1.19 22.16 -1.11 20.78 -1.03 19.37 C-0.99 18.66 -0.99 18.66 -0.81 15.06 C-0.73 13.62 -0.65 12.17 -0.56 10.68 C-0.36 7.12 -0.18 3.56 0 0 Z " fill="#DC9C6F" transform="translate(674,451)"/>
<path d="M0 0 C0.33 0 0.66 0 1 0 C1 1.14 1 2.27 0.99 3.44 C0.97 14.12 0.96 24.81 0.95 35.49 C0.94 40.98 0.94 46.48 0.92 51.97 C0.91 57.27 0.91 62.56 0.91 67.86 C0.9 69.89 0.9 71.91 0.89 73.94 C0.89 76.76 0.89 79.59 0.89 82.42 C0.88 84.03 0.88 85.64 0.88 87.3 C1 91 1 91 2 93 C8.53 94.8 13.94 94.89 20.62 94.26 C26.62 93.8 32.62 93.86 38.63 93.87 C39.3 93.87 39.3 93.87 42.73 93.86 C45.56 93.86 48.4 93.87 51.23 93.87 C55.58 93.88 59.93 93.87 64.28 93.86 C67.04 93.86 69.81 93.87 72.57 93.87 C73.22 93.87 73.22 93.87 76.52 93.86 C85.66 93.89 85.66 93.89 89 95 C89.33 94.34 89.66 93.68 90 93 C90.99 92.34 91.98 91.68 93 91 C94.95 86.45 95.49 81.9 96 77 C96.33 77 96.66 77 97 77 C97.14 79.58 97.23 82.17 97.31 84.75 C97.37 86.19 97.43 87.63 97.49 89.11 C97 93 97 93 95.04 95.21 C90.85 97.68 87.74 97.48 82.9 97.45 C81.03 97.45 79.17 97.45 77.25 97.45 C75.23 97.43 73.2 97.41 71.17 97.39 C69.09 97.38 67.01 97.38 64.93 97.37 C59.47 97.36 54.01 97.32 48.55 97.27 C42.97 97.23 37.39 97.22 31.81 97.2 C20.88 97.15 9.94 97.08 -1 97 C-1.02 84.5 -1.04 72 -1.05 59.5 C-1.06 53.7 -1.06 47.89 -1.08 42.09 C-1.09 36.5 -1.09 30.9 -1.09 25.3 C-1.1 23.16 -1.1 21.02 -1.11 18.88 C-1.11 15.9 -1.11 12.91 -1.11 9.93 C-1.12 8.22 -1.12 6.52 -1.12 4.76 C-1 1 -1 1 0 0 Z " fill="#5F9AA5" transform="translate(532,379)"/>
<path d="M0 0 C0.83 0.33 0.83 0.33 5 2 C14.37 5.72 22.35 6.13 32.39 6.07 C33.75 6.06 35.1 6.06 36.49 6.05 C39.42 6.04 42.35 6.03 45.28 6.01 C49.92 5.99 54.55 5.98 59.19 5.97 C72.36 5.93 85.54 5.89 98.72 5.83 C106.78 5.79 114.84 5.77 122.9 5.75 C125.97 5.75 129.05 5.73 132.12 5.71 C136.41 5.69 140.7 5.68 144.99 5.68 C145.63 5.67 145.63 5.67 148.87 5.64 C157.66 5.66 157.66 5.66 161 9 C161.69 13.19 161.69 13.19 162 17 C161.34 17 160.68 17 160 17 C159.67 17.66 159.34 18.32 159 19 C158.67 17.35 158.34 15.7 158 14 C157.67 12.68 157.34 11.36 157 10 C155.35 9.67 153.7 9.34 152 9 C151.67 8.83 151.67 8.83 150 8 C148 8.33 146 8.66 144 9 C141.4 9.08 138.8 9.11 136.2 9.1 C134.64 9.09 133.09 9.09 131.48 9.09 C129.81 9.08 128.13 9.07 126.4 9.06 C124.66 9.06 122.91 9.05 121.12 9.05 C113.68 9.03 106.23 9.01 98.79 8.98 C93.34 8.96 87.9 8.95 82.46 8.94 C81.64 8.93 81.64 8.93 77.46 8.91 C67.41 8.89 57.43 9.21 47.4 9.81 C41.34 10.07 35.41 9.74 29.38 9.19 C28.31 9.1 27.24 9.02 26.14 8.94 C19.65 8.39 13.37 7.39 7 6 C7 5.34 7 4.68 7 4 C5.35 4.33 3.7 4.66 2 5 C1.34 3.35 0.68 1.7 0 0 Z " fill="#D49A70" transform="translate(717,498)"/>
<path d="M0 0 C2.81 0.19 2.81 0.19 6 1 C6.99 2.65 7.98 4.3 9 6 C10.64 7.69 12.31 9.35 14 11 C19 16.67 19 16.67 19 19 C19.66 19 20.32 19 21 19 C21.33 18.34 21.66 17.68 22 17 C23.51 20.91 24.94 24.77 26.06 28.81 C27 32 27 32 29 35 C29.19 38.06 29.26 41.13 29.27 44.19 C29.27 45.11 29.27 45.11 29.27 49.74 C29.27 51.66 29.26 53.58 29.25 55.56 C29.25 56.53 29.25 56.53 29.27 61.4 C29.27 63.23 29.27 65.06 29.27 66.94 C29.26 68.63 29.26 70.32 29.26 72.06 C29 76 29 76 27 78 C27 79.98 27 81.96 27 84 C24.69 88.06 24.69 88.06 22 92 C21.01 93.65 20.02 95.3 19 97 C18.17 97.33 18.17 97.33 14 99 C11.89 101.24 11.89 101.24 9.81 103.88 C3.19 111.49 -4.21 113.19 -14 114 C-18.36 114.11 -22.71 114.1 -27.06 114.06 C-28.21 114.06 -29.37 114.05 -30.55 114.05 C-33.37 114.04 -36.18 114.02 -39 114 C-39 113.34 -39 112.68 -39 112 C-38.19 112.02 -38.19 112.02 -34.07 112.11 C-31.9 112.13 -29.73 112.16 -27.56 112.19 C-26.49 112.21 -25.42 112.24 -24.32 112.26 C-17.57 112.33 -12.4 111.4 -6 109 C-4.68 109 -3.36 109 -2 109 C-2 108.34 -2 107.68 -2 107 C-0.87 106.5 0.27 106.01 1.44 105.5 C13.26 99.02 19.97 89.53 24.94 77.19 C26.97 69.2 27.21 61.28 27.25 53.06 C27.27 52.03 27.29 51 27.31 49.93 C27.36 40.43 24.79 33.15 20.62 24.75 C20.06 23.59 19.5 22.43 18.91 21.23 C16.96 17.93 14.74 15.66 12 13 C12 12.34 12 11.68 12 11 C11.01 10.67 10.02 10.34 9 10 C5 5.54 5 5.54 5 3 C3.68 2.67 2.36 2.34 1 2 C0.84 1.67 0.84 1.67 0 0 Z " fill="#E3AD85" transform="translate(596,623)"/>
<path d="M0 0 C33.33 0 66.66 0 101 0 C101 36.63 101 73.26 101 111 C100.67 111 100.34 111 100 111 C99.67 81.96 99.34 52.92 99 23 C98.34 22.67 97.68 22.34 97 22 C97.33 15.07 97.66 8.14 98 1 C96.68 1.33 95.36 1.66 94 2 C91.55 2.09 89.09 2.13 86.64 2.13 C85.13 2.13 83.62 2.14 82.06 2.14 C80.43 2.14 78.79 2.13 77.11 2.13 C75.42 2.13 73.73 2.13 72 2.14 C68.41 2.14 64.83 2.13 61.25 2.13 C55.81 2.13 50.38 2.13 44.94 2.14 C41.45 2.14 37.97 2.13 34.48 2.13 C32.87 2.13 31.26 2.14 29.6 2.14 C19.7 2.12 9.88 1.74 0 1 C0 0.67 0 0.34 0 0 Z " fill="#8773B2" transform="translate(400,505)"/>
<path d="M0 0 C0.33 0.66 0.66 1.32 1 2 C0.34 3.32 -0.32 4.64 -1 6 C-1.66 6 -2.32 6 -3 6 C-3.01 7.39 -3.02 8.78 -3.03 10.21 C-3.07 15.49 -3.13 20.77 -3.21 26.04 C-3.24 28.3 -3.26 30.57 -3.27 32.83 C-3.44 57.42 -5.83 81.65 -17 104 C-17.66 104 -18.32 104 -19 104 C-19.33 105.65 -19.66 107.3 -20 109 C-20.66 110.32 -21.32 111.64 -22 113 C-23 111 -23 111 -21.69 106.81 C-21.13 105.22 -20.57 103.64 -20 102 C-19.32 99.67 -18.65 97.34 -18 95 C-17.34 95 -16.68 95 -16 95 C-15.67 93.35 -15.34 91.7 -15 90 C-14.35 88 -13.68 86 -13 84 C-12.67 82.68 -12.34 81.36 -12 80 C-11.84 79.84 -11.84 79.84 -11 79 C-11.02 77.66 -11.04 76.32 -11.06 74.94 C-11 70.25 -10.3 66.48 -9 62 C-8.01 62.33 -7.02 62.66 -6 63 C-6.16 62.17 -6.16 62.17 -7 58 C-7.07 53.19 -7 48.38 -6.94 43.57 C-6.99 39.84 -7.36 36.64 -8 33 C-8.09 30.42 -8.13 27.83 -8.12 25.25 C-8.13 24.59 -8.13 24.59 -8.13 21.27 C-8 18 -8 18 -7 16 C-6.34 16 -5.68 16 -5 16 C-5.06 14.45 -5.12 12.91 -5.19 11.31 C-5 6 -5 6 -2 1 C-1.34 0.67 -0.68 0.34 0 0 Z " fill="#D29D75" transform="translate(853,608)"/>
<path d="M0 0 C1.07 -0 2.13 -0 3.23 -0.01 C6.77 -0.01 10.3 -0.01 13.84 -0 C16.29 -0 18.74 -0.01 21.2 -0.01 C26.34 -0.01 31.48 -0.01 36.63 -0 C43.23 0 49.83 0 56.43 -0 C61.49 -0.01 66.56 -0.01 71.62 -0 C74.06 -0 76.49 -0 78.92 -0.01 C82.32 -0.01 85.72 -0.01 89.12 0 C91.06 0 92.99 0 94.99 0 C99.63 0.13 99.63 0.13 103.63 1.13 C104.82 7.11 104.73 12.88 104.69 18.94 C104.68 20.11 104.68 21.28 104.67 22.49 C104.66 25.37 104.64 28.25 104.63 31.13 C104.3 31.13 103.97 31.13 103.63 31.13 C103.61 30.53 103.61 30.53 103.51 27.51 C103.14 18.44 102.76 10.39 98.63 2.13 C89.32 2.1 80.01 2.09 70.7 2.07 C67.53 2.07 64.37 2.06 61.2 2.05 C56.65 2.04 52.1 2.04 47.55 2.03 C46.13 2.03 44.72 2.02 43.25 2.02 C41.93 2.02 40.61 2.02 39.25 2.02 C38.67 2.01 38.67 2.01 35.73 2.01 C32.63 2.13 32.63 2.13 27.63 3.13 C25.29 3.21 22.96 3.22 20.63 3.13 C20.46 2.96 20.46 2.96 19.63 2.13 C15.85 2 12.09 1.94 8.31 1.94 C7.25 1.93 6.19 1.92 5.1 1.9 C0.25 1.9 -2.98 1.93 -7.37 4.13 C-9.35 4.13 -11.33 4.13 -13.37 4.13 C-13.37 3.14 -13.37 2.15 -13.37 1.13 C-8.92 -0.36 -4.69 0 0 0 Z " fill="#7963AD" transform="translate(164.374755859375,505.87060546875)"/>
<path d="M0 0 C0.33 0 0.66 0 1 0 C1.12 3.38 1.12 3.38 1 7 C0.34 7.66 -0.32 8.32 -1 9 C-1 10.65 -1 12.3 -1 14 C-1.33 14.17 -1.33 14.17 -3 15 C-5.36 20.26 -6.22 24.28 -6 30 C-6.16 30.82 -6.16 30.82 -7 35 C-6.67 35.99 -6.34 36.98 -6 38 C-6.33 38.17 -6.33 38.17 -8 39 C-9.12 44.45 -9.2 49.89 -9.25 55.44 C-9.28 57.04 -9.3 58.65 -9.33 60.31 C-9 65 -9 65 -6 73 C28.65 73.33 63.3 73.66 99 74 C99 74.33 99 74.66 99 75 C85.21 75.02 71.43 75.04 57.64 75.05 C51.24 75.06 44.84 75.06 38.44 75.08 C32.27 75.09 26.09 75.09 19.92 75.09 C17.56 75.1 15.2 75.1 12.84 75.11 C9.55 75.11 6.25 75.11 2.96 75.11 C2.02 75.11 2.02 75.11 -2.74 75.12 C-7 75 -7 75 -9 74 C-17.85 57.78 -10.94 32.17 -6.3 15.33 C-2.41 2.41 -2.41 2.41 0 0 Z " fill="#CF88AD" transform="translate(165,402)"/>
<path d="M0 0 C0.67 -0 0.67 -0 4.05 -0 C8.47 0 12.88 0.01 17.3 0.02 C20.36 0.02 23.42 0.02 26.49 0.02 C34.55 0.02 42.6 0.03 50.66 0.04 C58.89 0.06 67.11 0.06 75.34 0.06 C91.47 0.08 107.61 0.09 123.74 0.11 C124.07 0.77 124.4 1.43 124.74 2.11 C113.25 2.25 101.75 2.38 90.25 2.5 C84.91 2.56 79.57 2.62 74.22 2.69 C51.49 2.95 28.75 3.17 6.01 3.21 C4.15 3.21 2.3 3.22 0.38 3.23 C-1.33 3.23 -3.03 3.23 -4.8 3.23 C-5.54 3.23 -5.54 3.23 -9.33 3.23 C-12.75 3.13 -15.9 2.78 -19.26 2.11 C-19.26 1.78 -19.26 1.45 -19.26 1.11 C-12.84 -0.09 -6.51 -0.02 0 0 Z " fill="#FEEACF" transform="translate(749.25732421875,501.886474609375)"/>
<path d="M0 0 C1 2 1 2 0.07 5.23 C-1.37 11.64 -1.21 17.74 -1.12 24.29 C-1.12 25.67 -1.11 27.04 -1.1 28.46 C-1.07 34.32 -1.01 40.18 -0.96 46.04 C-0.92 50.33 -0.9 54.62 -0.88 58.91 C-0.86 60.22 -0.84 61.52 -0.82 62.86 C-0.76 76.01 -2.51 87.65 -7 100 C-7.67 102 -8.34 104 -9 106 C-9.66 106 -10.32 106 -11 106 C-11.66 107.32 -12.32 108.64 -13 110 C-12.27 104.75 -10.98 100.48 -8 96 C-6.22 90.83 -5.67 86.07 -5.44 80.62 C-5.1 73.1 -5.1 73.1 -4 72 C-3.9 68.54 -3.87 65.08 -3.88 61.62 C-3.87 59.72 -3.87 57.81 -3.87 55.85 C-4 51 -4 51 -5 48 C-5.08 45.86 -5.11 43.72 -5.1 41.58 C-5.09 40.33 -5.09 39.07 -5.09 37.78 C-5.08 36.47 -5.07 35.16 -5.06 33.81 C-5.06 32.49 -5.05 31.17 -5.05 29.81 C-5.04 26.54 -5.02 23.27 -5 20 C-4.34 20 -3.68 20 -3 20 C-3.33 19.11 -3.66 18.23 -4 17.31 C-5 14 -5 14 -5 9 C-4.34 8.67 -3.68 8.34 -3 8 C-3 6.02 -3 4.04 -3 2 C-2.01 1.34 -1.02 0.68 0 0 Z " fill="#7763A8" transform="translate(503,718)"/>
<path d="M0 0 C-4 3 -4 3 -8.19 5.25 C-20.05 12.03 -28.99 20.13 -34 33 C-34.72 34.57 -35.44 36.13 -36.19 37.75 C-38.64 43.49 -39.15 48.55 -39.32 54.71 C-39.36 56.18 -39.4 57.65 -39.44 59.17 C-39.48 60.7 -39.52 62.23 -39.56 63.81 C-39.61 65.36 -39.65 66.92 -39.69 68.51 C-39.8 72.34 -39.9 76.17 -40 80 C-40.66 80 -41.32 80 -42 80 C-42.09 74.63 -42.14 69.25 -42.19 63.88 C-42.21 62.37 -42.24 60.87 -42.26 59.32 C-42.35 46.48 -41.77 34.66 -34 24 C-33.01 22.37 -32.02 20.74 -31 19.06 C-28 15 -28 15 -23 14 C-22.67 12.68 -22.34 11.36 -22 10 C-21.01 10 -20.02 10 -19 10 C-19 9.34 -19 8.68 -19 8 C-18.01 7.67 -17.02 7.34 -16 7 C-15.67 6.34 -15.34 5.68 -15 5 C-5.95 0 -5.95 0 0 0 Z " fill="#BA6B96" transform="translate(464,233)"/>
<path d="M0 0 C1.01 0.15 2.01 0.31 3.05 0.47 C15.87 2.2 28.83 2.16 41.75 2.12 C43.36 2.13 44.97 2.13 46.63 2.14 C48.17 2.14 49.71 2.13 51.3 2.13 C52.68 2.13 54.07 2.13 55.5 2.13 C59 2 59 2 63 1 C63 1.66 63 2.32 63 3 C64.32 2.67 65.64 2.34 67 2 C77.24 0.91 87.29 1.04 97.56 1.38 C98.22 1.4 98.22 1.4 101.56 1.51 C107.14 1.71 112.51 1.98 118 3 C118 3.33 118 3.66 118 4 C79.72 4 41.44 4 2 4 C1.34 2.68 0.68 1.36 0 0 Z " fill="#B35F87" transform="translate(157,472)"/>
<path d="M0 0 C1.32 0.66 2.64 1.32 4 2 C2.27 2.06 0.53 2.12 -1.25 2.19 C-7 3 -7 3 -9.35 5.14 C-11.35 8.61 -11.38 10.65 -11.19 14.62 C-10.93 20.78 -10.93 20.78 -12 24 C-12.09 30.54 -11.85 37.08 -11.69 43.62 C-11.65 45.44 -11.62 47.26 -11.58 49.14 C-11.56 50.02 -11.56 50.02 -11.45 54.48 C-11.41 56.09 -11.37 57.7 -11.33 59.35 C-10.99 64.08 -10.07 68.4 -9 73 C-8.93 76 -8.9 79 -9 82 C-9.66 81.67 -10.32 81.34 -11 81 C-11.62 78.23 -12.12 75.43 -12.56 72.62 C-12.69 71.86 -12.69 71.86 -13.32 67.98 C-16.04 48.18 -18.5 20.51 -12 1 C-8.25 -0.87 -4.09 -0.15 0 0 Z " fill="#CF946C" transform="translate(544,732)"/>
<path d="M0 0 C2.64 0 5.28 0 8 0 C5.43 2.57 3.52 2.54 0 3 C-0.33 3.99 -0.66 4.98 -1 6 C-3.66 8.01 -6.33 10.01 -9 12 C-15.78 19.49 -15.87 27.7 -16.77 37.34 C-17.39 43.37 -17.97 48.62 -21 54 C-26.28 58.18 -30.06 59.13 -36.69 59.06 C-37.28 59.06 -37.28 59.06 -40.26 59.04 C-41.17 59.02 -42.07 59.01 -43 59 C-43 58.67 -43 58.34 -43 58 C-41.47 57.88 -39.95 57.75 -38.38 57.62 C-30.51 56.71 -30.51 56.71 -27 55 C-26.01 53.35 -25.02 51.7 -24 50 C-23.67 49.84 -23.67 49.84 -22 49 C-22.02 47.93 -22.04 46.86 -22.06 45.75 C-22 42 -22 42 -21 38 C-20.88 36.31 -20.75 34.62 -20.62 32.88 C-19.71 24.29 -18.63 17.81 -12 12 C-11.01 10.35 -10.02 8.7 -9 7 C-3.93 4 -3.93 4 -1 4 C-0.67 2.68 -0.34 1.36 0 0 Z " fill="#C26F9C" transform="translate(368,478)"/>
<path d="M0 0 C4.95 0 9.9 0 15 0 C15 0.33 15 0.66 15 1 C10.71 1 6.42 1 2 1 C1.97 2.66 1.95 4.32 1.92 6.03 C1.83 12.17 1.73 18.31 1.63 24.44 C1.58 27.1 1.54 29.77 1.5 32.43 C1.45 36.24 1.38 40.06 1.32 43.87 C1.3 45.07 1.28 46.27 1.27 47.5 C1.11 55.89 1.11 55.89 0 57 C-0.24 66.29 -0.24 66.29 1 70 C0.75 74.41 0.44 78.79 0.06 83.19 C0.01 83.8 0.01 83.8 -0.24 86.9 C-0.49 89.94 -0.74 92.97 -1 96 C-1.33 96 -1.66 96 -2 96 C-2.1 71.75 -2.13 47.5 -1.56 23.25 C-1.52 21.48 -1.48 19.71 -1.44 17.89 C-1.13 5.64 -1.13 5.64 0 0 Z " fill="#CF9068" transform="translate(531,505)"/>
<path d="M0 0 C5.12 3.72 5.92 9.38 7.19 15.31 C7.76 20.92 7.88 26.49 7.94 32.12 C7.97 33.59 8 35.06 8.03 36.57 C8.1 40.15 8.15 43.73 8.19 47.31 C7.53 47.31 6.87 47.31 6.19 47.31 C5.23 39.79 4.88 32.32 4.62 24.75 C4.58 23.55 4.54 22.35 4.49 21.12 C4.39 18.18 4.29 15.25 4.19 12.31 C3.2 12.31 2.21 12.31 1.19 12.31 C0.94 11.4 0.69 10.5 0.44 9.56 C-0.81 6.31 -0.81 6.31 -4.81 2.31 C-10.31 2.62 -10.31 2.62 -15.81 4.31 C-19.42 8.7 -20.36 12.72 -20.81 18.31 C-21.14 18.31 -21.47 18.31 -21.81 18.31 C-23.13 9.42 -23.13 9.42 -21.81 4.88 C-16.34 -2.14 -8.03 -1.45 0 0 Z " fill="#D79D72" transform="translate(697.8125,435.6875)"/>
<path d="M0 0 C4.5 -0.14 9 -0.23 13.5 -0.31 C14.13 -0.33 14.13 -0.33 17.34 -0.44 C24.98 -0.54 29.92 -0.16 36 5 C38.62 10.24 38.26 14.19 38 20 C36 25 36 25 33 28 C28.27 29.69 25.14 30 20 30 C24 28 24 28 28 28 C28.33 27.01 28.66 26.02 29 25 C29.99 25.33 30.98 25.66 32 26 C32 25.34 32 24.68 32 24 C31.34 23.67 30.68 23.34 30 23 C30.83 22.48 31.65 21.97 32.5 21.44 C35 19 35 19 35.31 15.25 C35.26 14.71 35.26 14.71 35 12 C33.02 11.67 31.04 11.34 29 11 C28.67 9.35 28.34 7.7 28 6 C27.67 5.34 27.34 4.68 27 4 C24.68 3.59 22.34 3.26 20 3 C20 2.67 20 2.34 20 2 C13.4 1.67 6.8 1.34 0 1 C0 0.67 0 0.34 0 0 Z " fill="#7A69AA" transform="translate(540,660)"/>
<path d="M0 0 C0.33 0 0.66 0 1 0 C1.01 1.17 1.02 2.33 1.03 3.54 C1.13 14.6 1.23 25.66 1.34 36.72 C1.39 42.41 1.45 48.09 1.5 53.78 C1.55 59.28 1.6 64.77 1.65 70.27 C1.67 72.36 1.69 74.44 1.71 76.53 C1.99 109.75 1.99 109.75 5 121 C5.66 121 6.32 121 7 121 C7 122.65 7 124.3 7 126 C6.01 125.67 5.02 125.34 4 125 C2.9 122.04 1.9 119.03 1 116 C0.67 115.01 0.34 114.02 0 113 C-0.09 109.42 -0.13 105.86 -0.11 102.29 C-0.11 101.74 -0.11 101.74 -0.11 98.95 C-0.11 95.29 -0.11 91.64 -0.1 87.99 C-0.1 85.46 -0.09 82.93 -0.09 80.4 C-0.09 73.74 -0.08 67.07 -0.07 60.41 C-0.06 53.61 -0.05 46.82 -0.05 40.02 C-0.04 26.68 -0.02 13.34 0 0 Z " fill="#69569C" transform="translate(499,520)"/>
<path d="M0 0 C0.33 0 0.66 0 1 0 C1 10.89 1 21.78 1 33 C5.95 33.33 10.9 33.66 16 34 C16.33 34.66 16.66 35.32 17 36 C19.8 36.6 19.8 36.6 23.31 37.06 C26.97 37.56 30.41 38.1 34 39 C34 39.66 34 40.32 34 41 C35.26 40.94 36.52 40.88 37.81 40.81 C42 41 42 41 45 44 C48.31 45.4 51.64 46.73 55 48 C59.94 49.98 61.08 50.89 64 55 C61 55 61 55 58.83 53.23 C55.34 50.48 51.78 48.98 47.69 47.25 C46.25 46.64 44.81 46.02 43.32 45.39 C42.23 44.93 41.13 44.47 40 44 C40 43.34 40 42.68 40 42 C39.03 42.06 38.06 42.12 37.06 42.19 C33 42 33 42 29.03 40.59 C23.16 38.74 17.53 37.99 11.44 37.31 C7.66 36.88 3.89 36.45 0 36 C0 24.12 0 12.24 0 0 Z " fill="#F4B88A" transform="translate(560,549)"/>
<path d="M0 0 C0.99 0.17 0.99 0.17 6 1 C7.5 5.5 7.12 9.79 7.11 14.53 C7.11 15.61 7.11 16.7 7.11 17.81 C7.11 21.4 7.11 24.99 7.1 28.57 C7.1 31.06 7.09 33.54 7.09 36.03 C7.09 42.57 7.08 49.12 7.07 55.66 C7.06 62.34 7.05 69.01 7.05 75.69 C7.04 88.79 7.02 101.9 7 115 C6.67 115 6.34 115 6 115 C5.86 104.31 5.71 93.63 5.57 82.94 C5.52 79.31 5.48 75.69 5.43 72.06 C5.36 66.81 5.29 61.56 5.22 56.31 C5.2 54.61 5.17 52.92 5.15 51.17 C5.02 40.18 4.98 29.19 5.08 18.2 C5 14 5 14 4.44 10.67 C4 8 4 8 5 4 C3.68 3.34 2.36 2.68 1 2 C0.67 1.34 0.34 0.68 0 0 Z " fill="#BE7CA0" transform="translate(495,116)"/>
<path d="M0 0 C0.33 0 0.66 0 1 0 C2.03 38.05 2.03 38.05 -4 53 C-5.28 56.19 -6.47 59.42 -7.56 62.69 C-9 67 -9 67 -10 69 C-10.66 69 -11.32 69 -12 69 C-12.29 70.13 -12.58 71.27 -12.88 72.44 C-13.06 73.03 -13.06 73.03 -14 76 C-14.33 76.16 -14.33 76.16 -16 77 C-16 71 -16 71 -13.75 68.56 C-10.11 63.85 -9.29 59.21 -7.99 53.46 C-7 50 -7 50 -4 46 C-3.56 42.4 -3.56 42.4 -3.44 38.38 C-3.21 31.21 -3.21 31.21 -1 29 C-0.88 25.04 -0.86 21.14 -0.94 17.19 C-1.12 5.61 -1.12 5.61 0 0 Z " fill="#CB956E" transform="translate(879,517)"/>
<path d="M0 0 C5.58 1.18 7.63 2.5 11 7 C16.16 9.06 21.34 10.79 26.62 12.5 C31 14 31 14 35 16 C35.51 16.08 35.51 16.08 38.06 16.5 C41 17 41 17 44 19 C47.19 19.32 47.19 19.32 51.07 19.41 C51.77 19.43 51.77 19.43 55.28 19.53 C56.01 19.55 56.01 19.55 59.69 19.62 C61.15 19.66 62.62 19.7 64.13 19.74 C67.75 19.84 71.38 19.92 75 20 C75 20.33 75 20.66 75 21 C69.23 21.16 69.23 21.16 40 22 C40 21.34 40 20.68 40 20 C37.22 19.31 34.43 18.66 31.62 18.06 C25.41 16.63 19.84 14.57 14 12 C14 11.34 14 10.68 14 10 C12.35 9.67 10.7 9.34 9 9 C6 6 3 3 0 0 Z " fill="#DCA881" transform="translate(552,847)"/>
<path d="M0 0 C0.33 0.66 0.66 1.32 1 2 C1.66 2.33 2.32 2.66 3 3 C2.34 3.66 1.68 4.32 1 5 C1 5.99 1 6.98 1 8 C0.83 9.34 0.67 10.68 0.5 12.06 C0 17 0 17 0.12 21.94 C-0.01 27.46 -1.24 31.79 -3 37 C-3.33 38.32 -3.66 39.64 -4 41 C-5.21 45.67 -6.72 49.75 -9 54 C-9.66 52.68 -10.32 51.36 -11 50 C-10.07 47.64 -9.05 45.31 -8 43 C-4.09 32.72 -3.5 22.95 -3.37 12 C-3.02 7.25 -2.17 4.19 0 0 Z " fill="#816EB7" transform="translate(398,505)"/>
<path d="M0 0 C0.99 0 1.98 0 3 0 C1.67 4.66 -0.27 8.02 -3 12 C-3.78 13.46 -4.57 14.93 -5.38 16.44 C-8 21 -8 21 -11.19 24.69 C-13.95 27.94 -14.76 30.03 -16 34 C-17.32 35.32 -18.64 36.64 -20 38 C-22.69 42.22 -24.01 45.04 -25 50 C-25.66 50 -26.32 50 -27 50 C-25.25 41.25 -25.25 41.25 -23 39 C-22.55 37.93 -22.09 36.86 -21.62 35.75 C-20.05 32.12 -18.21 29.28 -16 26 C-13.95 22.36 -11.98 18.68 -10 15 C-9.34 15 -8.68 15 -8 15 C-8 14.01 -8 13.02 -8 12 C-7.34 11.67 -6.68 11.34 -6 11 C-4.95 9.02 -3.95 7.03 -3 5 C-2.34 5 -1.68 5 -1 5 C-0.67 3.35 -0.34 1.7 0 0 Z " fill="#CE7BA2" transform="translate(197,341)"/>
<path d="M0 0 C0.33 0 0.66 0 1 0 C1 1.98 1 3.96 1 6 C-1.09 8.09 -6.07 7.13 -8.73 7.13 C-10.63 7.13 -12.52 7.14 -14.47 7.14 C-16.56 7.13 -18.66 7.13 -20.75 7.12 C-21.8 7.12 -22.85 7.12 -23.93 7.12 C-49.62 7.1 -75.31 6.57 -101 6 C-101 5.67 -101 5.34 -101 5 C-41.53 3.81 -41.53 3.81 -16 4 C-16 4.33 -16 4.66 -16 5 C-13.69 5.17 -13.69 5.17 -2 6 C-1.34 4.02 -0.68 2.04 0 0 Z " fill="#CB85A8" transform="translate(501,470)"/>
</svg>
